<svg width="65" height="65" viewBox="0 0 65 65" fill="none" xmlns="http://www.w3.org/2000/svg">
<path d="M32.5 0C23.8834 0.00963439 15.6225 3.43683 9.52967 9.52967C3.43683 15.6225 0.00963439 23.8834 0 32.5C0.014437 41.1151 3.44317 49.3732 9.53498 55.465C15.6268 61.5568 23.8849 64.9856 32.5 65C41.1195 65 49.386 61.5759 55.481 55.481C61.5759 49.386 65 41.1195 65 32.5C65 23.8805 61.5759 15.614 55.481 9.51903C49.386 3.4241 41.1195 0 32.5 0ZM52.2678 51.2538C50.4425 47.5722 47.6247 44.474 44.1323 42.3087C40.6399 40.1433 36.6119 38.9971 32.5026 38.9992C28.3934 39.0014 24.3666 40.1519 20.8765 42.3209C17.3863 44.4899 14.5718 47.5911 12.7504 51.2746C7.89078 46.2345 5.18295 39.5013 5.2 32.5C5.2 25.2596 8.07624 18.3157 13.196 13.196C18.3157 8.07624 25.2596 5.2 32.5 5.2C39.7404 5.2 46.6843 8.07624 51.804 13.196C56.9238 18.3157 59.8 25.2596 59.8 32.5C59.8163 39.4915 57.1155 46.2158 52.2678 51.2538ZM32.5 13C30.186 13 27.9239 13.6862 25.9998 14.9718C24.0758 16.2574 22.5762 18.0847 21.6906 20.2226C20.8051 22.3605 20.5734 24.713 21.0248 26.9826C21.4763 29.2521 22.5906 31.3369 24.2269 32.9731C25.8631 34.6094 27.9479 35.7237 30.2174 36.1752C32.487 36.6266 34.8395 36.3949 36.9774 35.5094C39.1153 34.6238 40.9426 33.1242 42.2282 31.2002C43.5138 29.2761 44.2 27.014 44.2 24.7C44.2 23.1635 43.8974 21.6421 43.3094 20.2226C42.7214 18.8031 41.8596 17.5133 40.7731 16.4269C39.6867 15.3404 38.3969 14.4786 36.9774 13.8906C35.5579 13.3026 34.0365 13 32.5 13Z" fill="#467D6D"/>
</svg>
