<svg width="471" height="89" viewBox="0 0 471 89" fill="none" xmlns="http://www.w3.org/2000/svg">
<g filter="url(#filter0_d_824_272)">
<path d="M23.8605 79H4.00047V8.68H43.6005V23.98L23.8605 22.78V39.1H40.0605V53.98L23.8605 52.78V79ZM73.2531 73.06C75.0131 73.06 76.3531 72.34 77.2731 70.9C78.2331 69.42 78.7131 67.4 78.7131 64.84V45.88C78.7131 38.08 76.8731 34.18 73.1931 34.18C71.4731 34.18 70.1331 34.88 69.1731 36.28C68.2131 37.68 67.7331 39.66 67.7331 42.22V61.72C67.7331 69.28 69.5731 73.06 73.2531 73.06ZM72.7731 80.26C63.6131 80.26 56.9131 78.18 52.6731 74.02C48.4331 69.86 46.3131 63.22 46.3131 54.1C46.3131 45.06 48.4531 38.26 52.7331 33.7C57.0131 29.1 63.9731 26.8 73.6131 26.8C83.0131 26.8 89.7931 29 93.9531 33.4C98.1531 37.76 100.253 44.38 100.253 53.26C100.253 62.46 98.0331 69.26 93.5931 73.66C89.1931 78.06 82.2531 80.26 72.7731 80.26ZM130.909 73.06C132.669 73.06 134.009 72.34 134.929 70.9C135.889 69.42 136.369 67.4 136.369 64.84V45.88C136.369 38.08 134.529 34.18 130.849 34.18C129.129 34.18 127.789 34.88 126.829 36.28C125.869 37.68 125.389 39.66 125.389 42.22V61.72C125.389 69.28 127.229 73.06 130.909 73.06ZM130.429 80.26C121.269 80.26 114.569 78.18 110.329 74.02C106.089 69.86 103.969 63.22 103.969 54.1C103.969 45.06 106.109 38.26 110.389 33.7C114.669 29.1 121.629 26.8 131.269 26.8C140.669 26.8 147.449 29 151.609 33.4C155.809 37.76 157.909 44.38 157.909 53.26C157.909 62.46 155.689 69.26 151.249 73.66C146.849 78.06 139.909 80.26 130.429 80.26ZM197.986 79L195.646 71.26C195.326 71.82 194.946 72.38 194.506 72.94C194.106 73.5 193.446 74.22 192.526 75.1C191.606 75.94 190.626 76.68 189.586 77.32C188.546 77.96 187.246 78.52 185.686 79C184.126 79.48 182.486 79.72 180.766 79.72C174.166 79.72 169.326 77.46 166.246 72.94C163.166 68.42 161.626 62.14 161.626 54.1C161.626 49.06 162.346 44.58 163.786 40.66C165.226 36.7 167.486 33.52 170.566 31.12C173.646 28.72 177.366 27.52 181.726 27.52C184.326 27.52 186.646 27.8 188.686 28.36C190.726 28.92 192.486 29.6 193.966 30.4V12.22L187.366 10V3.4L208.606 0.4H213.286V79H197.986ZM189.526 67.96C190.246 67.96 190.986 67.84 191.746 67.6C192.506 67.32 193.246 66.94 193.966 66.46V36.28C192.726 36 191.586 35.86 190.546 35.86C185.226 35.9 182.546 40 182.506 48.16V56.56C182.506 60.32 183.166 63.16 184.486 65.08C185.806 67 187.486 67.96 189.526 67.96ZM244.821 79V8.68H264.681V62.92H282.561V79H244.821ZM314.643 73.66L314.043 74.32C313.643 74.8 313.023 75.36 312.183 76C311.383 76.64 310.443 77.28 309.363 77.92C308.323 78.56 307.043 79.1 305.523 79.54C304.003 80.02 302.443 80.26 300.843 80.26C290.043 80.26 284.643 74.92 284.643 64.24C284.643 62.16 285.023 60.26 285.783 58.54C286.543 56.78 287.523 55.3 288.723 54.1C289.923 52.9 291.363 51.84 293.043 50.92C294.723 49.96 296.403 49.22 298.083 48.7C299.803 48.14 301.603 47.68 303.483 47.32C305.363 46.96 307.043 46.72 308.523 46.6C310.003 46.48 311.423 46.42 312.783 46.42V45.34C312.783 42.9 312.123 41.18 310.803 40.18C309.523 39.18 307.443 38.68 304.563 38.68C302.083 38.68 299.503 38.98 296.823 39.58C294.143 40.14 292.043 40.82 290.523 41.62L286.683 33.46C289.403 31.7 292.943 30.16 297.303 28.84C301.663 27.48 306.103 26.8 310.623 26.8C314.623 26.8 317.923 27.2 320.523 28C323.123 28.76 325.223 30.08 326.823 31.96C328.463 33.8 329.623 36.16 330.303 39.04C330.983 41.88 331.323 45.5 331.323 49.9V74.32L333.003 79H316.563L314.643 73.66ZM309.903 69.7C310.423 69.7 310.903 69.6 311.343 69.4C311.823 69.16 312.183 68.94 312.423 68.74C312.663 68.5 312.783 68.38 312.783 68.38V53.98C310.343 53.98 308.403 54.66 306.963 56.02C305.523 57.34 304.803 59.4 304.803 62.2C304.803 67.2 306.503 69.7 309.903 69.7ZM369.716 79C365.236 79 361.236 78.06 357.716 76.18V79H338.156V11.14L334.556 8.98V3.4L353.816 0.4H357.716V32.68C358.356 31.96 359.056 31.28 359.816 30.64C360.576 30 361.496 29.38 362.576 28.78C363.656 28.18 364.876 27.7 366.236 27.34C367.636 26.98 369.116 26.8 370.676 26.8C377.276 26.8 382.116 29.06 385.196 33.58C388.316 38.1 389.876 44.36 389.876 52.36C389.876 56.12 389.456 59.6 388.616 62.8C387.776 65.96 386.536 68.76 384.896 71.2C383.256 73.64 381.136 75.56 378.536 76.96C375.976 78.32 373.036 79 369.716 79ZM360.896 70.66C366.256 70.66 368.936 66.56 368.936 58.36V48.16C368.936 44.72 368.296 42.08 367.016 40.24C365.776 38.36 364.176 37.42 362.216 37.42C360.736 37.42 359.236 37.96 357.716 39.04V70.24C358.316 70.4 358.876 70.52 359.396 70.6C359.916 70.64 360.416 70.66 360.896 70.66ZM423.065 47.98C423.065 42.9 422.805 39.3 422.285 37.18C421.765 35.06 420.805 34 419.405 34C418.205 34 417.225 34.22 416.465 34.66C415.705 35.06 415.145 35.72 414.785 36.64C414.425 37.52 414.185 38.44 414.065 39.4C413.985 40.32 413.945 41.5 413.945 42.94V47.98H423.065ZM418.265 80.26C413.785 80.26 409.885 79.58 406.565 78.22C403.285 76.86 400.685 74.96 398.765 72.52C396.885 70.08 395.505 67.34 394.625 64.3C393.745 61.22 393.305 57.8 393.305 54.04C393.305 45.08 395.585 38.3 400.145 33.7C404.705 29.1 411.085 26.8 419.285 26.8C427.165 26.8 432.805 28.66 436.205 32.38C439.605 36.06 441.305 42 441.305 50.2V56.86H413.885V58C413.885 60.36 414.125 62.3 414.605 63.82C415.125 65.34 415.865 66.46 416.825 67.18C417.785 67.9 418.765 68.38 419.765 68.62C420.765 68.86 421.985 68.98 423.425 68.98C424.825 68.98 426.325 68.8 427.925 68.44C429.565 68.08 431.205 67.52 432.845 66.76C434.525 66 435.925 65.1 437.045 64.06L440.585 70.12C439.105 72.52 436.925 74.54 434.045 76.18C431.205 77.78 428.465 78.86 425.825 79.42C423.185 79.98 420.665 80.26 418.265 80.26ZM447.145 79V11.14L443.545 8.98V3.4L462.805 0.4H466.705V79H447.145Z" fill="white"/>
</g>
<defs>
<filter id="filter0_d_824_272" x="0.000488281" y="0.399994" width="470.705" height="87.86" filterUnits="userSpaceOnUse" color-interpolation-filters="sRGB">
<feFlood flood-opacity="0" result="BackgroundImageFix"/>
<feColorMatrix in="SourceAlpha" type="matrix" values="0 0 0 0 0 0 0 0 0 0 0 0 0 0 0 0 0 0 127 0" result="hardAlpha"/>
<feOffset dy="4"/>
<feGaussianBlur stdDeviation="2"/>
<feComposite in2="hardAlpha" operator="out"/>
<feColorMatrix type="matrix" values="0 0 0 0 0 0 0 0 0 0 0 0 0 0 0 0 0 0 0.5 0"/>
<feBlend mode="normal" in2="BackgroundImageFix" result="effect1_dropShadow_824_272"/>
<feBlend mode="normal" in="SourceGraphic" in2="effect1_dropShadow_824_272" result="shape"/>
</filter>
</defs>
</svg>
