<svg width="190" height="23" viewBox="0 0 190 23" fill="none" xmlns="http://www.w3.org/2000/svg">
<path d="M9.26361 0.527344C10.1505 0.853117 10.9858 1.70566 11.6161 3.10645C12.277 4.57504 12.6835 6.58875 12.6835 9.03223C12.6835 11.4689 12.2413 13.439 11.5624 14.8877C10.9203 16.258 10.0822 17.1301 9.23334 17.5312C8.50585 17.2636 7.68596 16.4338 7.0224 15.0156C6.32294 13.5207 5.84467 11.4643 5.84467 9.03223C5.84469 6.58874 6.25122 4.57504 6.91205 3.10645C7.5422 1.7061 8.37705 0.853346 9.26361 0.527344Z" stroke="black"/>
<path d="M18.397 8.8046C18.0654 9.50973 17.2127 10.2165 15.7703 10.7731C14.2312 11.367 12.1168 11.7503 9.55004 11.7918C6.9891 11.8332 4.90759 11.4872 3.36975 10.9278C1.94967 10.4112 1.04724 9.73274 0.61365 9.06006C0.735271 8.81434 0.960656 8.53684 1.31913 8.24776C1.76647 7.88707 2.38786 7.53319 3.17038 7.21964C4.73482 6.59282 6.89235 6.1476 9.44953 6.10621C12.0163 6.06468 14.1431 6.37938 15.7022 6.92314C17.163 7.43258 18.0404 8.11087 18.397 8.8046Z" stroke="black"/>
<path d="M16.311 14.4167C15.5728 14.7479 14.4412 14.7474 12.9693 14.2624C11.4034 13.7464 9.5472 12.711 7.58275 11.1338C5.62302 9.56033 4.291 7.99584 3.51495 6.61169C2.79563 5.3286 2.57986 4.24712 2.71826 3.46345C2.98248 3.34973 3.34766 3.27971 3.82237 3.28641C4.40644 3.29467 5.11722 3.41685 5.92152 3.67055C7.52925 4.17774 9.46027 5.19303 11.4168 6.76386C13.3813 8.34107 14.7691 9.91029 15.5719 11.296C16.3262 12.5981 16.5235 13.6639 16.311 14.4167Z" stroke="black"/>
<path d="M16.0641 3.512C16.2845 4.25077 16.1057 5.31144 15.3759 6.62239C14.5984 8.01888 13.2418 9.61275 11.3119 11.2293C9.38658 12.8421 7.56997 13.8665 6.02608 14.3946C4.59738 14.8833 3.45541 14.9285 2.67491 14.687C2.60183 14.4243 2.58772 14.0736 2.66913 13.6317C2.76995 13.0844 3.00799 12.4349 3.39559 11.7161C4.17066 10.2789 5.51885 8.61135 7.44126 7.001C9.37113 5.38441 11.2018 4.30842 12.7515 3.75548C14.2052 3.23684 15.3276 3.20618 16.0641 3.512Z" stroke="black"/>
<path d="M9.44232 7.65778C10.0233 7.65784 10.5458 8.16774 10.5458 8.86188C10.5458 9.55608 10.0234 10.0659 9.44232 10.066C8.86122 10.066 8.33881 9.55612 8.33881 8.86188C8.33887 8.1677 8.86126 7.65778 9.44232 7.65778Z" fill="black" stroke="black"/>
<path d="M27.4254 4.09091H30.0568V11.1275C30.0568 11.9407 29.8633 12.6491 29.4762 13.2528C29.0891 13.853 28.5494 14.3182 27.8569 14.6484C27.1644 14.9751 26.3601 15.1385 25.4439 15.1385C24.517 15.1385 23.7074 14.9751 23.0149 14.6484C22.3224 14.3182 21.7844 13.853 21.4009 13.2528C21.0174 12.6491 20.8256 11.9407 20.8256 11.1275V4.09091H23.4624V10.8984C23.4624 11.2749 23.544 11.6104 23.7074 11.9052C23.8743 12.1999 24.1069 12.4308 24.4052 12.5977C24.7035 12.7646 25.0497 12.848 25.4439 12.848C25.8381 12.848 26.1825 12.7646 26.4773 12.5977C26.7756 12.4308 27.0082 12.1999 27.1751 11.9052C27.342 11.6104 27.4254 11.2749 27.4254 10.8984V4.09091ZM34.3142 10.3338V15H31.7094V6.81818H34.1863V8.32031H34.2769C34.458 7.8196 34.767 7.4272 35.2037 7.14311C35.6405 6.85547 36.1608 6.71165 36.7645 6.71165C37.3398 6.71165 37.8387 6.84126 38.2613 7.1005C38.6874 7.35618 39.0177 7.71484 39.252 8.17649C39.49 8.63459 39.6072 9.17081 39.6036 9.78516V15H36.9988V10.2965C37.0024 9.84197 36.887 9.48686 36.6526 9.23118C36.4218 8.9755 36.1004 8.84766 35.6885 8.84766C35.415 8.84766 35.1736 8.90803 34.964 9.02876C34.7581 9.14595 34.5983 9.31463 34.4846 9.5348C34.3746 9.75497 34.3177 10.0213 34.3142 10.3338ZM41.2163 15V6.81818H43.821V15H41.2163ZM42.5213 5.8647C42.1555 5.8647 41.8413 5.74396 41.5785 5.50249C41.3157 5.25746 41.1843 4.96271 41.1843 4.61825C41.1843 4.27734 41.3157 3.98615 41.5785 3.74467C41.8413 3.49964 42.1555 3.37713 42.5213 3.37713C42.8906 3.37713 43.2049 3.49964 43.4641 3.74467C43.7269 3.98615 43.8583 4.27734 43.8583 4.61825C43.8583 4.96271 43.7269 5.25746 43.4641 5.50249C43.2049 5.74396 42.8906 5.8647 42.5213 5.8647ZM55.3813 8.04332H52.718C52.6824 7.76989 52.6096 7.52308 52.4996 7.30291C52.3895 7.08274 52.2439 6.89453 52.0628 6.73828C51.8817 6.58203 51.6668 6.46307 51.4182 6.38139C51.1732 6.29616 50.9015 6.25355 50.6032 6.25355C50.0741 6.25355 49.6178 6.38317 49.2343 6.6424C48.8543 6.90163 48.5613 7.27628 48.3554 7.76633C48.153 8.25639 48.0518 8.84943 48.0518 9.54545C48.0518 10.2699 48.1547 10.8771 48.3607 11.3672C48.5702 11.8537 48.8632 12.2212 49.2396 12.4698C49.6196 12.7148 50.0688 12.8374 50.5873 12.8374C50.8785 12.8374 51.143 12.8001 51.3809 12.7255C51.6224 12.6509 51.8337 12.5426 52.0148 12.4006C52.1995 12.255 52.3504 12.0792 52.4676 11.8732C52.5883 11.6637 52.6718 11.4276 52.718 11.1648L55.3813 11.1808C55.3351 11.6637 55.1949 12.1396 54.9605 12.6083C54.7297 13.0771 54.4118 13.505 54.007 13.892C53.6022 14.2756 53.1086 14.581 52.5262 14.8082C51.9474 15.0355 51.2833 15.1491 50.534 15.1491C49.5468 15.1491 48.6626 14.9325 47.8813 14.4993C47.1036 14.0625 46.4893 13.4268 46.0383 12.5923C45.5873 11.7578 45.3618 10.7422 45.3618 9.54545C45.3618 8.34517 45.5908 7.32777 46.0489 6.49325C46.507 5.65874 47.1267 5.02486 47.9079 4.59162C48.6892 4.15838 49.5645 3.94176 50.534 3.94176C51.1945 3.94176 51.8053 4.03409 52.3664 4.21875C52.9275 4.39986 53.4211 4.66619 53.8472 5.01776C54.2733 5.36577 54.6196 5.79368 54.8859 6.30149C55.1523 6.8093 55.3174 7.38991 55.3813 8.04332ZM60.7093 15.1545C59.85 15.1545 59.1113 14.9787 58.4934 14.6271C57.8791 14.272 57.405 13.7784 57.0712 13.1463C56.7409 12.5107 56.5758 11.7738 56.5758 10.9357C56.5758 10.0941 56.7409 9.35724 57.0712 8.72514C57.405 8.08949 57.8791 7.59588 58.4934 7.24432C59.1113 6.8892 59.85 6.71165 60.7093 6.71165C61.5687 6.71165 62.3056 6.8892 62.9199 7.24432C63.5378 7.59588 64.0119 8.08949 64.3422 8.72514C64.676 9.35724 64.8429 10.0941 64.8429 10.9357C64.8429 11.7738 64.676 12.5107 64.3422 13.1463C64.0119 13.7784 63.5378 14.272 62.9199 14.6271C62.3056 14.9787 61.5687 15.1545 60.7093 15.1545ZM60.7253 13.1889C61.0378 13.1889 61.3024 13.093 61.519 12.9013C61.7356 12.7095 61.9007 12.4432 62.0144 12.1023C62.1316 11.7614 62.1902 11.3672 62.1902 10.9197C62.1902 10.4652 62.1316 10.0675 62.0144 9.72656C61.9007 9.38565 61.7356 9.11932 61.519 8.92756C61.3024 8.7358 61.0378 8.63991 60.7253 8.63991C60.4022 8.63991 60.1287 8.7358 59.905 8.92756C59.6848 9.11932 59.5162 9.38565 59.399 9.72656C59.2853 10.0675 59.2285 10.4652 59.2285 10.9197C59.2285 11.3672 59.2853 11.7614 59.399 12.1023C59.5162 12.4432 59.6848 12.7095 59.905 12.9013C60.1287 13.093 60.4022 13.1889 60.7253 13.1889ZM69.1655 15.1172C68.5618 15.1172 68.0131 14.9609 67.5195 14.6484C67.0259 14.3359 66.6317 13.8672 66.337 13.2422C66.0423 12.6172 65.8949 11.8413 65.8949 10.9144C65.8949 9.95206 66.0476 9.16016 66.353 8.53871C66.6584 7.91726 67.0579 7.45739 67.5515 7.15909C68.0487 6.8608 68.5831 6.71165 69.1548 6.71165C69.5845 6.71165 69.9521 6.78622 70.2575 6.93537C70.5629 7.08097 70.815 7.26918 71.0138 7.5C71.2127 7.73082 71.3636 7.97053 71.4666 8.2191H71.5199V4.09091H74.1246V15H71.5465V13.6737H71.4666C71.3565 13.9258 71.2003 14.1619 70.9979 14.3821C70.7955 14.6023 70.5415 14.7798 70.2362 14.9148C69.9343 15.0497 69.5774 15.1172 69.1655 15.1172ZM70.071 13.0877C70.3871 13.0877 70.657 12.9989 70.8807 12.8214C71.1044 12.6403 71.2766 12.3864 71.3974 12.0597C71.5181 11.733 71.5785 11.3494 71.5785 10.9091C71.5785 10.4616 71.5181 10.0763 71.3974 9.7532C71.2802 9.43004 71.108 9.18146 70.8807 9.00746C70.657 8.83345 70.3871 8.74645 70.071 8.74645C69.7479 8.74645 69.4744 8.83523 69.2507 9.01278C69.027 9.19034 68.8565 9.4407 68.7393 9.76385C68.6257 10.087 68.5689 10.4687 68.5689 10.9091C68.5689 11.3494 68.6275 11.733 68.7447 12.0597C68.8619 12.3864 69.0305 12.6403 69.2507 12.8214C69.4744 12.9989 69.7479 13.0877 70.071 13.0877ZM79.5965 15.1545C78.7407 15.1545 78.002 14.9858 77.3806 14.6484C76.7627 14.3075 76.2868 13.8228 75.953 13.1942C75.6228 12.5621 75.4577 11.8111 75.4577 10.9411C75.4577 10.0959 75.6246 9.35724 75.9584 8.72514C76.2922 8.08949 76.7627 7.59588 77.3699 7.24432C77.9772 6.8892 78.6927 6.71165 79.5166 6.71165C80.099 6.71165 80.6317 6.8022 81.1146 6.98331C81.5976 7.16442 82.0148 7.43253 82.3664 7.78764C82.718 8.14276 82.9914 8.58132 83.1867 9.10334C83.382 9.6218 83.4797 10.2166 83.4797 10.8878V11.5376H76.3685V10.0249H81.056C81.0525 9.74787 80.9868 9.50107 80.8589 9.28445C80.7311 9.06783 80.5553 8.89915 80.3316 8.77841C80.1114 8.65412 79.8575 8.59197 79.5699 8.59197C79.2787 8.59197 79.0177 8.65767 78.7868 8.78906C78.556 8.9169 78.3731 9.09268 78.2382 9.31641C78.1032 9.53658 78.0322 9.78693 78.0251 10.0675V11.6069C78.0251 11.9407 78.0908 12.2337 78.2222 12.4858C78.3536 12.7344 78.54 12.9279 78.7815 13.0664C79.023 13.2049 79.3106 13.2741 79.6444 13.2741C79.8753 13.2741 80.0848 13.2422 80.273 13.1783C80.4612 13.1143 80.6228 13.0202 80.7577 12.896C80.8927 12.7717 80.9939 12.619 81.0613 12.4379L83.453 12.5071C83.3536 13.0433 83.1352 13.5103 82.7979 13.908C82.464 14.3022 82.0255 14.6094 81.4822 14.8295C80.9388 15.0462 80.3103 15.1545 79.5965 15.1545Z" fill="black"/>
</svg>
