<svg width="64" height="64" viewBox="0 0 64 64" fill="none" xmlns="http://www.w3.org/2000/svg">
<path fill-rule="evenodd" clip-rule="evenodd" d="M56 16H8V24H9.33333C11.219 24 12.1618 24 12.7475 24.5858C13.3333 25.1716 13.3333 26.1144 13.3333 28V50C13.3333 52.8284 13.3333 54.2426 14.212 55.1213C15.0907 56 16.5049 56 19.3333 56H44.6667C47.4951 56 48.9093 56 49.788 55.1213C50.6667 54.2426 50.6667 52.8284 50.6667 50V28C50.6667 26.1144 50.6667 25.1716 51.2525 24.5858C51.8382 24 52.7811 24 54.6667 24H56V16ZM26.3333 29.3333C26.3333 28.781 25.8856 28.3333 25.3333 28.3333C24.781 28.3333 24.3333 28.781 24.3333 29.3333V42.6667C24.3333 43.219 24.781 43.6667 25.3333 43.6667C25.8856 43.6667 26.3333 43.219 26.3333 42.6667V29.3333ZM39.6667 29.3333C39.6667 28.781 39.219 28.3333 38.6667 28.3333C38.1144 28.3333 37.6667 28.781 37.6667 29.3333V42.6667C37.6667 43.219 38.1144 43.6667 38.6667 43.6667C39.219 43.6667 39.6667 43.219 39.6667 42.6667V29.3333Z" fill="#467D6D"/>
<path d="M26.8481 8.98824C27.1519 8.70473 27.8215 8.45421 28.7529 8.27553C29.6844 8.09685 30.8256 8 31.9997 8C33.1737 8 34.315 8.09685 35.2464 8.27553C36.1778 8.45421 36.8474 8.70473 37.1513 8.98824" stroke="#467D6D" stroke-width="2" stroke-linecap="round"/>
</svg>
