<svg width="26" height="26" viewBox="0 0 26 26" fill="none" xmlns="http://www.w3.org/2000/svg">
<path d="M25.4932 23.7321L17.1926 15.4314C18.4806 13.7662 19.1774 11.7302 19.1774 9.58871C19.1774 7.02533 18.177 4.62176 16.3679 2.80949C14.5589 0.997225 12.1489 0 9.58871 0C7.02852 0 4.61856 1.00042 2.80949 2.80949C0.997225 4.61856 0 7.02533 0 9.58871C0 12.1489 1.00042 14.5589 2.80949 16.3679C4.61856 18.1802 7.02533 19.1774 9.58871 19.1774C11.7302 19.1774 13.763 18.4806 15.4282 17.1958L23.7289 25.4932C23.7532 25.5175 23.7821 25.5369 23.8139 25.55C23.8457 25.5632 23.8798 25.57 23.9142 25.57C23.9487 25.57 23.9828 25.5632 24.0146 25.55C24.0464 25.5369 24.0753 25.5175 24.0996 25.4932L25.4932 24.1028C25.5175 24.0785 25.5369 24.0496 25.55 24.0178C25.5632 23.986 25.57 23.9519 25.57 23.9174C25.57 23.883 25.5632 23.8489 25.55 23.8171C25.5369 23.7853 25.5175 23.7564 25.4932 23.7321ZM14.6515 14.6515C13.2963 16.0036 11.5001 16.7483 9.58871 16.7483C7.67736 16.7483 5.88107 16.0036 4.52587 14.6515C3.17386 13.2963 2.42914 11.5001 2.42914 9.58871C2.42914 7.67736 3.17386 5.87788 4.52587 4.52587C5.88107 3.17386 7.67736 2.42914 9.58871 2.42914C11.5001 2.42914 13.2995 3.17067 14.6515 4.52587C16.0036 5.88107 16.7483 7.67736 16.7483 9.58871C16.7483 11.5001 16.0036 13.2995 14.6515 14.6515Z" fill="white"/>
</svg>
