<svg width="54" height="54" viewBox="0 0 54 54" fill="none" xmlns="http://www.w3.org/2000/svg">
<path d="M26.6285 0L26.9432 0.0186666L27.1005 0.0400003L27.2632 0.074667L27.5592 0.165333C27.7636 0.240702 27.958 0.341016 28.1378 0.464L28.4152 0.682667L29.0952 1.264C34.4747 5.73217 41.2735 8.13147 48.2658 8.02933L49.1778 8.00267C49.7741 7.97546 50.3622 8.14908 50.8481 8.49573C51.334 8.84238 51.6895 9.34202 51.8578 9.91467C53.1682 14.3722 53.5692 19.0477 53.037 23.6632C52.5047 28.2788 51.0501 32.7403 48.7595 36.7826C46.469 40.8249 43.3893 44.3655 39.7033 47.1941C36.0174 50.0226 31.8005 52.0814 27.3032 53.248C26.8642 53.3618 26.4035 53.3618 25.9645 53.248C21.467 52.0817 17.2498 50.0231 13.5635 47.1947C9.87729 44.3663 6.79725 40.8257 4.50643 36.7834C2.21561 32.741 0.760767 28.2795 0.228351 23.6637C-0.304065 19.048 0.0968142 14.3724 1.40716 9.91467C1.57546 9.34202 1.931 8.84238 2.41689 8.49573C2.90278 8.14908 3.49092 7.97546 4.08717 8.00267C11.3871 8.33636 18.5487 5.93331 24.1698 1.264L24.8712 0.664L25.1272 0.464C25.307 0.341016 25.5014 0.240702 25.7058 0.165333L26.0045 0.074667C26.109 0.0494234 26.215 0.03072 26.3218 0.0186666L26.6285 0ZM26.6338 18.6667C25.2883 18.6662 23.9923 19.1744 23.0057 20.0893C22.0191 21.0042 21.4147 22.2583 21.3138 23.6L21.3005 24L21.3138 24.4C21.3796 25.2656 21.6556 26.1021 22.118 26.8368C22.5804 27.5715 23.2152 28.1823 23.9672 28.616V33.3333L23.9858 33.6453C24.0661 34.3203 24.4011 34.9391 24.9223 35.3753C25.4435 35.8115 26.1116 36.0323 26.7901 35.9925C27.4686 35.9526 28.1063 35.6552 28.5729 35.161C29.0395 34.6668 29.2997 34.013 29.3005 33.3333L29.3032 28.6187C30.3201 28.0315 31.1147 27.1252 31.5639 26.0402C32.0131 24.9553 32.0917 23.7525 31.7875 22.6183C31.4833 21.4842 30.8133 20.4821 29.8815 19.7676C28.9497 19.0531 27.8081 18.6661 26.6338 18.6667Z" fill="#467D6D"/>
</svg>
