<svg width="64" height="64" viewBox="0 0 64 64" fill="none" xmlns="http://www.w3.org/2000/svg">
<path d="M43.8783 41.3145C45.6069 40.3859 47.5855 39.8574 49.6926 39.8574H49.6998C49.914 39.8574 50.014 39.6002 49.8569 39.4574C47.6656 37.4908 45.1624 35.9024 42.4498 34.7574C42.4212 34.7431 42.3926 34.7359 42.364 34.7216C46.7998 31.5002 49.6855 26.2645 49.6855 20.3574C49.6855 10.5716 41.7712 2.64307 32.0069 2.64307C22.2426 2.64307 14.3355 10.5716 14.3355 20.3574C14.3355 26.2645 17.2212 31.5002 21.664 34.7216C21.6355 34.7359 21.6069 34.7431 21.5783 34.7574C18.3855 36.1074 15.5212 38.0431 13.0569 40.5145C10.6068 42.9601 8.65629 45.8593 7.31405 49.0502C5.99342 52.1749 5.2807 55.5228 5.21405 58.9145C5.21214 58.9907 5.22551 59.0666 5.25337 59.1376C5.28124 59.2085 5.32302 59.2732 5.37628 59.3278C5.42953 59.3824 5.49317 59.4258 5.56345 59.4554C5.63372 59.485 5.70922 59.5002 5.78547 59.5002H10.064C10.3712 59.5002 10.6283 59.2502 10.6355 58.9431C10.7783 53.4288 12.9855 48.2645 16.8926 44.3502C20.9283 40.3002 26.2998 38.0716 32.014 38.0716C36.064 38.0716 39.9498 39.1931 43.2998 41.2931C43.3858 41.3471 43.4846 41.3776 43.5862 41.3814C43.6877 41.3851 43.7885 41.3621 43.8783 41.3145ZM32.014 32.6431C28.7426 32.6431 25.664 31.3645 23.3426 29.0431C22.2004 27.9038 21.295 26.5499 20.6783 25.0592C20.0617 23.5685 19.7461 21.9705 19.7498 20.3574C19.7498 17.0788 21.0283 13.9931 23.3426 11.6716C25.6569 9.35021 28.7355 8.07164 32.014 8.07164C35.2926 8.07164 38.364 9.35021 40.6855 11.6716C41.8277 12.8109 42.7331 14.1648 43.3498 15.6555C43.9664 17.1462 44.282 18.7442 44.2783 20.3574C44.2783 23.6359 42.9998 26.7216 40.6855 29.0431C38.364 31.3645 35.2855 32.6431 32.014 32.6431ZM58.2855 49.6431H52.2855V43.6431C52.2855 43.3288 52.0283 43.0716 51.714 43.0716H47.714C47.3998 43.0716 47.1426 43.3288 47.1426 43.6431V49.6431H41.1426C40.8283 49.6431 40.5712 49.9002 40.5712 50.2145V54.2145C40.5712 54.5288 40.8283 54.7859 41.1426 54.7859H47.1426V60.7859C47.1426 61.1002 47.3998 61.3574 47.714 61.3574H51.714C52.0283 61.3574 52.2855 61.1002 52.2855 60.7859V54.7859H58.2855C58.5998 54.7859 58.8569 54.5288 58.8569 54.2145V50.2145C58.8569 49.9002 58.5998 49.6431 58.2855 49.6431Z" fill="#467D6D"/>
</svg>
