<svg width="47" height="45" viewBox="0 0 47 45" fill="none" xmlns="http://www.w3.org/2000/svg">
<path d="M18.9283 4.1457C19.971 -0.0485669 26.085 -0.0485669 27.1276 4.1457C27.2841 4.77579 27.5907 5.36094 28.0227 5.8535C28.4547 6.34607 28.9997 6.73214 29.6135 6.98029C30.2272 7.22843 30.8924 7.33165 31.5547 7.28153C32.2171 7.23142 32.8579 7.02938 33.4252 6.69188C37.2017 4.44666 41.5266 8.66481 39.2259 12.3527C38.8805 12.906 38.6738 13.5311 38.6226 14.177C38.5714 14.823 38.677 15.4716 38.931 16.0702C39.185 16.6688 39.5801 17.2004 40.0843 17.6219C40.5885 18.0435 41.1874 18.3429 41.8325 18.496C46.1304 19.5135 46.1304 25.4801 41.8325 26.4976C41.1869 26.6503 40.5873 26.9496 40.0825 27.3711C39.5778 27.7927 39.1822 28.3246 38.9279 28.9235C38.6736 29.5225 38.5678 30.1716 38.6192 30.818C38.6706 31.4643 38.8776 32.0898 39.2234 32.6433C41.5241 36.3288 37.2017 40.5494 33.4227 38.3041C32.8557 37.9671 32.2153 37.7654 31.5533 37.7154C30.8914 37.6654 30.2268 37.7685 29.6134 38.0164C29 38.2643 28.4552 38.6499 28.0233 39.1419C27.5914 39.6339 27.2845 40.2184 27.1276 40.8479C26.085 45.0422 19.971 45.0422 18.9283 40.8479C18.7719 40.2178 18.4652 39.6327 18.0332 39.1401C17.6013 38.6476 17.0562 38.2615 16.4425 38.0133C15.8287 37.7652 15.1636 37.662 14.5012 37.7121C13.8389 37.7622 13.198 37.9642 12.6308 38.3018C8.85419 40.547 4.52937 36.3288 6.83007 32.6409C7.17542 32.0876 7.38212 31.4626 7.43335 30.8166C7.48459 30.1707 7.37892 29.522 7.12493 28.9235C6.87094 28.3249 6.47581 27.7932 5.97165 27.3717C5.46748 26.9502 4.86851 26.6507 4.22343 26.4976C-0.0744754 25.4801 -0.0744754 19.5135 4.22343 18.496C4.86909 18.3433 5.46869 18.0441 5.97343 17.6225C6.47816 17.201 6.87377 16.6691 7.12805 16.0701C7.38233 15.4711 7.4881 14.8221 7.43674 14.1757C7.38539 13.5293 7.17836 12.9039 6.83252 12.3503C4.53182 8.66481 8.85419 4.44427 12.6332 6.68949C15.0808 8.14172 18.2528 6.85669 18.9283 4.1457Z" stroke="#467D6D" stroke-width="2" stroke-linecap="round" stroke-linejoin="round"/>
<path d="M15.6853 22.4968C15.6853 24.3973 16.4589 26.2199 17.8359 27.5637C19.2129 28.9075 21.0806 29.6624 23.028 29.6624C24.9754 29.6624 26.843 28.9075 28.22 27.5637C29.597 26.2199 30.3706 24.3973 30.3706 22.4968C30.3706 20.5964 29.597 18.7738 28.22 17.43C26.843 16.0862 24.9754 15.3312 23.028 15.3312C21.0806 15.3312 19.2129 16.0862 17.8359 17.43C16.4589 18.7738 15.6853 20.5964 15.6853 22.4968Z" stroke="#467D6D" stroke-width="2" stroke-linecap="round" stroke-linejoin="round"/>
</svg>
