<svg width="62" height="11" viewBox="0 0 62 11" fill="none" xmlns="http://www.w3.org/2000/svg">
<mask id="path-1-outside-1_941_1302" maskUnits="userSpaceOnUse" x="-0.844727" y="-1.17126" width="64" height="14" fill="black">
<rect fill="white" x="-0.844727" y="-1.17126" width="64" height="14"/>
<path d="M2.84289 10.8287H0.19489V1.45274H5.47489V3.49274L2.84289 3.33274V5.50874H5.00289V7.49274L2.84289 7.33274V10.8287ZM9.42858 10.0367C9.66324 10.0367 9.84191 9.94074 9.96458 9.74874C10.0926 9.5514 10.1566 9.28207 10.1566 8.94074V6.41274C10.1566 5.37274 9.91124 4.85274 9.42058 4.85274C9.19124 4.85274 9.01258 4.94607 8.88458 5.13274C8.75658 5.3194 8.69258 5.5834 8.69258 5.92474V8.52474C8.69258 9.53274 8.93791 10.0367 9.42858 10.0367ZM9.36458 10.9967C8.14324 10.9967 7.24991 10.7194 6.68458 10.1647C6.11924 9.61007 5.83658 8.72474 5.83658 7.50874C5.83658 6.3034 6.12191 5.39674 6.69258 4.78874C7.26324 4.1754 8.19124 3.86874 9.47658 3.86874C10.7299 3.86874 11.6339 4.16207 12.1886 4.74874C12.7486 5.33007 13.0286 6.21274 13.0286 7.39674C13.0286 8.6234 12.7326 9.53007 12.1406 10.1167C11.5539 10.7034 10.6286 10.9967 9.36458 10.9967ZM17.1161 10.0367C17.3507 10.0367 17.5294 9.94074 17.6521 9.74874C17.7801 9.5514 17.8441 9.28207 17.8441 8.94074V6.41274C17.8441 5.37274 17.5987 4.85274 17.1081 4.85274C16.8787 4.85274 16.7001 4.94607 16.5721 5.13274C16.4441 5.3194 16.3801 5.5834 16.3801 5.92474V8.52474C16.3801 9.53274 16.6254 10.0367 17.1161 10.0367ZM17.0521 10.9967C15.8307 10.9967 14.9374 10.7194 14.3721 10.1647C13.8067 9.61007 13.5241 8.72474 13.5241 7.50874C13.5241 6.3034 13.8094 5.39674 14.3801 4.78874C14.9507 4.1754 15.8787 3.86874 17.1641 3.86874C18.4174 3.86874 19.3214 4.16207 19.8761 4.74874C20.4361 5.33007 20.7161 6.21274 20.7161 7.39674C20.7161 8.6234 20.4201 9.53007 19.8281 10.1167C19.2414 10.7034 18.3161 10.9967 17.0521 10.9967ZM26.0596 10.8287L25.7476 9.79674C25.7049 9.8714 25.6542 9.94607 25.5956 10.0207C25.5422 10.0954 25.4542 10.1914 25.3316 10.3087C25.2089 10.4207 25.0782 10.5194 24.9396 10.6047C24.8009 10.6901 24.6276 10.7647 24.4196 10.8287C24.2116 10.8927 23.9929 10.9247 23.7636 10.9247C22.8836 10.9247 22.2382 10.6234 21.8276 10.0207C21.4169 9.41807 21.2116 8.58074 21.2116 7.50874C21.2116 6.83674 21.3076 6.2394 21.4996 5.71674C21.6916 5.18874 21.9929 4.76474 22.4036 4.44474C22.8142 4.12474 23.3102 3.96474 23.8916 3.96474C24.2382 3.96474 24.5476 4.00207 24.8196 4.07674C25.0916 4.1514 25.3262 4.24207 25.5236 4.34874V1.92474L24.6436 1.62874V0.748736L27.4756 0.348735H28.0996V10.8287H26.0596ZM24.9316 9.35674C25.0276 9.35674 25.1262 9.34074 25.2276 9.30874C25.3289 9.2714 25.4276 9.22074 25.5236 9.15674V5.13274C25.3582 5.0954 25.2062 5.07674 25.0676 5.07674C24.3582 5.08207 24.0009 5.62874 23.9956 6.71674V7.83674C23.9956 8.33807 24.0836 8.71674 24.2596 8.97274C24.4356 9.22874 24.6596 9.35674 24.9316 9.35674ZM32.3043 10.8287V1.45274H34.9523V8.68474H37.3363V10.8287H32.3043ZM41.6139 10.1167L41.5339 10.2047C41.4806 10.2687 41.3979 10.3434 41.2859 10.4287C41.1792 10.5141 41.0539 10.5994 40.9099 10.6847C40.7712 10.7701 40.6006 10.8421 40.3979 10.9007C40.1952 10.9647 39.9872 10.9967 39.7739 10.9967C38.3339 10.9967 37.6139 10.2847 37.6139 8.86074C37.6139 8.5834 37.6646 8.33007 37.7659 8.10074C37.8672 7.86607 37.9979 7.66874 38.1579 7.50874C38.3179 7.34874 38.5099 7.2074 38.7339 7.08474C38.9579 6.95674 39.1819 6.85807 39.4059 6.78874C39.6352 6.71407 39.8752 6.65274 40.1259 6.60474C40.3766 6.55674 40.6006 6.52474 40.7979 6.50874C40.9952 6.49274 41.1846 6.48474 41.3659 6.48474V6.34074C41.3659 6.0154 41.2779 5.78607 41.1019 5.65274C40.9312 5.5194 40.6539 5.45274 40.2699 5.45274C39.9392 5.45274 39.5952 5.49274 39.2379 5.57274C38.8806 5.6474 38.6006 5.73807 38.3979 5.84474L37.8859 4.75674C38.2486 4.52207 38.7206 4.31674 39.3019 4.14074C39.8832 3.9594 40.4752 3.86874 41.0779 3.86874C41.6112 3.86874 42.0512 3.92207 42.3979 4.02874C42.7446 4.13007 43.0246 4.30607 43.2379 4.55674C43.4566 4.80207 43.6112 5.11674 43.7019 5.50074C43.7926 5.8794 43.8379 6.36207 43.8379 6.94874V10.2047L44.0619 10.8287H41.8699L41.6139 10.1167ZM40.9819 9.58874C41.0512 9.58874 41.1152 9.5754 41.1739 9.54874C41.2379 9.51674 41.2859 9.4874 41.3179 9.46074C41.3499 9.42874 41.3659 9.41274 41.3659 9.41274V7.49274C41.0406 7.49274 40.7819 7.5834 40.5899 7.76474C40.3979 7.94074 40.3019 8.2154 40.3019 8.58874C40.3019 9.2554 40.5286 9.58874 40.9819 9.58874ZM48.957 10.8287C48.3597 10.8287 47.8263 10.7034 47.357 10.4527V10.8287H44.749V1.78074L44.269 1.49274V0.748736L46.837 0.348735H47.357V4.65274C47.4423 4.55674 47.5357 4.46607 47.637 4.38074C47.7383 4.2954 47.861 4.21274 48.005 4.13274C48.149 4.05274 48.3117 3.98874 48.493 3.94074C48.6797 3.89274 48.877 3.86874 49.085 3.86874C49.965 3.86874 50.6103 4.17007 51.021 4.77274C51.437 5.3754 51.645 6.21007 51.645 7.27674C51.645 7.77807 51.589 8.24207 51.477 8.66874C51.365 9.09007 51.1997 9.4634 50.981 9.78874C50.7623 10.1141 50.4797 10.3701 50.133 10.5567C49.7917 10.7381 49.3997 10.8287 48.957 10.8287ZM47.781 9.71674C48.4957 9.71674 48.853 9.17007 48.853 8.07674V6.71674C48.853 6.25807 48.7677 5.90607 48.597 5.66074C48.4317 5.41007 48.2183 5.28474 47.957 5.28474C47.7597 5.28474 47.5597 5.35674 47.357 5.50074V9.66074C47.437 9.68207 47.5117 9.69807 47.581 9.70874C47.6503 9.71407 47.717 9.71674 47.781 9.71674ZM56.0702 6.69274C56.0702 6.0154 56.0355 5.5354 55.9662 5.25274C55.8969 4.97007 55.7689 4.82874 55.5822 4.82874C55.4222 4.82874 55.2915 4.85807 55.1902 4.91674C55.0889 4.97007 55.0142 5.05807 54.9662 5.18074C54.9182 5.29807 54.8862 5.42074 54.8702 5.54874C54.8595 5.6714 54.8542 5.82874 54.8542 6.02074V6.69274H56.0702ZM55.4302 10.9967C54.8329 10.9967 54.3129 10.9061 53.8702 10.7247C53.4329 10.5434 53.0862 10.2901 52.8302 9.96474C52.5795 9.6394 52.3955 9.27407 52.2782 8.86874C52.1609 8.45807 52.1022 8.00207 52.1022 7.50074C52.1022 6.30607 52.4062 5.40207 53.0142 4.78874C53.6222 4.1754 54.4729 3.86874 55.5662 3.86874C56.6169 3.86874 57.3689 4.11674 57.8222 4.61274C58.2755 5.1034 58.5022 5.8954 58.5022 6.98874V7.87674H54.8462V8.02874C54.8462 8.3434 54.8782 8.60207 54.9422 8.80474C55.0115 9.0074 55.1102 9.15674 55.2382 9.25274C55.3662 9.34874 55.4969 9.41274 55.6302 9.44474C55.7635 9.47674 55.9262 9.49274 56.1182 9.49274C56.3049 9.49274 56.5049 9.46874 56.7182 9.42074C56.9369 9.37274 57.1555 9.29807 57.3742 9.19674C57.5982 9.0954 57.7849 8.9754 57.9342 8.83674L58.4062 9.64474C58.2089 9.96474 57.9182 10.2341 57.5342 10.4527C57.1555 10.6661 56.7902 10.8101 56.4382 10.8847C56.0862 10.9594 55.7502 10.9967 55.4302 10.9967ZM59.2808 10.8287V1.78074L58.8008 1.49274V0.748736L61.3688 0.348735H61.8888V10.8287H59.2808Z"/>
</mask>
<path d="M2.84289 10.8287H0.19489V1.45274H5.47489V3.49274L2.84289 3.33274V5.50874H5.00289V7.49274L2.84289 7.33274V10.8287ZM9.42858 10.0367C9.66324 10.0367 9.84191 9.94074 9.96458 9.74874C10.0926 9.5514 10.1566 9.28207 10.1566 8.94074V6.41274C10.1566 5.37274 9.91124 4.85274 9.42058 4.85274C9.19124 4.85274 9.01258 4.94607 8.88458 5.13274C8.75658 5.3194 8.69258 5.5834 8.69258 5.92474V8.52474C8.69258 9.53274 8.93791 10.0367 9.42858 10.0367ZM9.36458 10.9967C8.14324 10.9967 7.24991 10.7194 6.68458 10.1647C6.11924 9.61007 5.83658 8.72474 5.83658 7.50874C5.83658 6.3034 6.12191 5.39674 6.69258 4.78874C7.26324 4.1754 8.19124 3.86874 9.47658 3.86874C10.7299 3.86874 11.6339 4.16207 12.1886 4.74874C12.7486 5.33007 13.0286 6.21274 13.0286 7.39674C13.0286 8.6234 12.7326 9.53007 12.1406 10.1167C11.5539 10.7034 10.6286 10.9967 9.36458 10.9967ZM17.1161 10.0367C17.3507 10.0367 17.5294 9.94074 17.6521 9.74874C17.7801 9.5514 17.8441 9.28207 17.8441 8.94074V6.41274C17.8441 5.37274 17.5987 4.85274 17.1081 4.85274C16.8787 4.85274 16.7001 4.94607 16.5721 5.13274C16.4441 5.3194 16.3801 5.5834 16.3801 5.92474V8.52474C16.3801 9.53274 16.6254 10.0367 17.1161 10.0367ZM17.0521 10.9967C15.8307 10.9967 14.9374 10.7194 14.3721 10.1647C13.8067 9.61007 13.5241 8.72474 13.5241 7.50874C13.5241 6.3034 13.8094 5.39674 14.3801 4.78874C14.9507 4.1754 15.8787 3.86874 17.1641 3.86874C18.4174 3.86874 19.3214 4.16207 19.8761 4.74874C20.4361 5.33007 20.7161 6.21274 20.7161 7.39674C20.7161 8.6234 20.4201 9.53007 19.8281 10.1167C19.2414 10.7034 18.3161 10.9967 17.0521 10.9967ZM26.0596 10.8287L25.7476 9.79674C25.7049 9.8714 25.6542 9.94607 25.5956 10.0207C25.5422 10.0954 25.4542 10.1914 25.3316 10.3087C25.2089 10.4207 25.0782 10.5194 24.9396 10.6047C24.8009 10.6901 24.6276 10.7647 24.4196 10.8287C24.2116 10.8927 23.9929 10.9247 23.7636 10.9247C22.8836 10.9247 22.2382 10.6234 21.8276 10.0207C21.4169 9.41807 21.2116 8.58074 21.2116 7.50874C21.2116 6.83674 21.3076 6.2394 21.4996 5.71674C21.6916 5.18874 21.9929 4.76474 22.4036 4.44474C22.8142 4.12474 23.3102 3.96474 23.8916 3.96474C24.2382 3.96474 24.5476 4.00207 24.8196 4.07674C25.0916 4.1514 25.3262 4.24207 25.5236 4.34874V1.92474L24.6436 1.62874V0.748736L27.4756 0.348735H28.0996V10.8287H26.0596ZM24.9316 9.35674C25.0276 9.35674 25.1262 9.34074 25.2276 9.30874C25.3289 9.2714 25.4276 9.22074 25.5236 9.15674V5.13274C25.3582 5.0954 25.2062 5.07674 25.0676 5.07674C24.3582 5.08207 24.0009 5.62874 23.9956 6.71674V7.83674C23.9956 8.33807 24.0836 8.71674 24.2596 8.97274C24.4356 9.22874 24.6596 9.35674 24.9316 9.35674ZM32.3043 10.8287V1.45274H34.9523V8.68474H37.3363V10.8287H32.3043ZM41.6139 10.1167L41.5339 10.2047C41.4806 10.2687 41.3979 10.3434 41.2859 10.4287C41.1792 10.5141 41.0539 10.5994 40.9099 10.6847C40.7712 10.7701 40.6006 10.8421 40.3979 10.9007C40.1952 10.9647 39.9872 10.9967 39.7739 10.9967C38.3339 10.9967 37.6139 10.2847 37.6139 8.86074C37.6139 8.5834 37.6646 8.33007 37.7659 8.10074C37.8672 7.86607 37.9979 7.66874 38.1579 7.50874C38.3179 7.34874 38.5099 7.2074 38.7339 7.08474C38.9579 6.95674 39.1819 6.85807 39.4059 6.78874C39.6352 6.71407 39.8752 6.65274 40.1259 6.60474C40.3766 6.55674 40.6006 6.52474 40.7979 6.50874C40.9952 6.49274 41.1846 6.48474 41.3659 6.48474V6.34074C41.3659 6.0154 41.2779 5.78607 41.1019 5.65274C40.9312 5.5194 40.6539 5.45274 40.2699 5.45274C39.9392 5.45274 39.5952 5.49274 39.2379 5.57274C38.8806 5.6474 38.6006 5.73807 38.3979 5.84474L37.8859 4.75674C38.2486 4.52207 38.7206 4.31674 39.3019 4.14074C39.8832 3.9594 40.4752 3.86874 41.0779 3.86874C41.6112 3.86874 42.0512 3.92207 42.3979 4.02874C42.7446 4.13007 43.0246 4.30607 43.2379 4.55674C43.4566 4.80207 43.6112 5.11674 43.7019 5.50074C43.7926 5.8794 43.8379 6.36207 43.8379 6.94874V10.2047L44.0619 10.8287H41.8699L41.6139 10.1167ZM40.9819 9.58874C41.0512 9.58874 41.1152 9.5754 41.1739 9.54874C41.2379 9.51674 41.2859 9.4874 41.3179 9.46074C41.3499 9.42874 41.3659 9.41274 41.3659 9.41274V7.49274C41.0406 7.49274 40.7819 7.5834 40.5899 7.76474C40.3979 7.94074 40.3019 8.2154 40.3019 8.58874C40.3019 9.2554 40.5286 9.58874 40.9819 9.58874ZM48.957 10.8287C48.3597 10.8287 47.8263 10.7034 47.357 10.4527V10.8287H44.749V1.78074L44.269 1.49274V0.748736L46.837 0.348735H47.357V4.65274C47.4423 4.55674 47.5357 4.46607 47.637 4.38074C47.7383 4.2954 47.861 4.21274 48.005 4.13274C48.149 4.05274 48.3117 3.98874 48.493 3.94074C48.6797 3.89274 48.877 3.86874 49.085 3.86874C49.965 3.86874 50.6103 4.17007 51.021 4.77274C51.437 5.3754 51.645 6.21007 51.645 7.27674C51.645 7.77807 51.589 8.24207 51.477 8.66874C51.365 9.09007 51.1997 9.4634 50.981 9.78874C50.7623 10.1141 50.4797 10.3701 50.133 10.5567C49.7917 10.7381 49.3997 10.8287 48.957 10.8287ZM47.781 9.71674C48.4957 9.71674 48.853 9.17007 48.853 8.07674V6.71674C48.853 6.25807 48.7677 5.90607 48.597 5.66074C48.4317 5.41007 48.2183 5.28474 47.957 5.28474C47.7597 5.28474 47.5597 5.35674 47.357 5.50074V9.66074C47.437 9.68207 47.5117 9.69807 47.581 9.70874C47.6503 9.71407 47.717 9.71674 47.781 9.71674ZM56.0702 6.69274C56.0702 6.0154 56.0355 5.5354 55.9662 5.25274C55.8969 4.97007 55.7689 4.82874 55.5822 4.82874C55.4222 4.82874 55.2915 4.85807 55.1902 4.91674C55.0889 4.97007 55.0142 5.05807 54.9662 5.18074C54.9182 5.29807 54.8862 5.42074 54.8702 5.54874C54.8595 5.6714 54.8542 5.82874 54.8542 6.02074V6.69274H56.0702ZM55.4302 10.9967C54.8329 10.9967 54.3129 10.9061 53.8702 10.7247C53.4329 10.5434 53.0862 10.2901 52.8302 9.96474C52.5795 9.6394 52.3955 9.27407 52.2782 8.86874C52.1609 8.45807 52.1022 8.00207 52.1022 7.50074C52.1022 6.30607 52.4062 5.40207 53.0142 4.78874C53.6222 4.1754 54.4729 3.86874 55.5662 3.86874C56.6169 3.86874 57.3689 4.11674 57.8222 4.61274C58.2755 5.1034 58.5022 5.8954 58.5022 6.98874V7.87674H54.8462V8.02874C54.8462 8.3434 54.8782 8.60207 54.9422 8.80474C55.0115 9.0074 55.1102 9.15674 55.2382 9.25274C55.3662 9.34874 55.4969 9.41274 55.6302 9.44474C55.7635 9.47674 55.9262 9.49274 56.1182 9.49274C56.3049 9.49274 56.5049 9.46874 56.7182 9.42074C56.9369 9.37274 57.1555 9.29807 57.3742 9.19674C57.5982 9.0954 57.7849 8.9754 57.9342 8.83674L58.4062 9.64474C58.2089 9.96474 57.9182 10.2341 57.5342 10.4527C57.1555 10.6661 56.7902 10.8101 56.4382 10.8847C56.0862 10.9594 55.7502 10.9967 55.4302 10.9967ZM59.2808 10.8287V1.78074L58.8008 1.49274V0.748736L61.3688 0.348735H61.8888V10.8287H59.2808Z" fill="white"/>
<path d="M2.84289 10.8287V11.8287H3.84289V10.8287H2.84289ZM0.19489 10.8287H-0.80511V11.8287H0.19489V10.8287ZM0.19489 1.45274V0.452735H-0.80511V1.45274H0.19489ZM5.47489 1.45274H6.47489V0.452735H5.47489V1.45274ZM5.47489 3.49274L5.41421 4.49089L6.47489 4.55537V3.49274H5.47489ZM2.84289 3.33274L2.90357 2.33458L1.84289 2.2701V3.33274H2.84289ZM2.84289 5.50874H1.84289V6.50874H2.84289V5.50874ZM5.00289 5.50874H6.00289V4.50874H5.00289V5.50874ZM5.00289 7.49274L4.92902 8.49L6.00289 8.56955V7.49274H5.00289ZM2.84289 7.33274L2.91676 6.33547L1.84289 6.25592V7.33274H2.84289ZM2.84289 9.82874H0.19489V11.8287H2.84289V9.82874ZM1.19489 10.8287V1.45274H-0.80511V10.8287H1.19489ZM0.19489 2.45274H5.47489V0.452735H0.19489V2.45274ZM4.47489 1.45274V3.49274H6.47489V1.45274H4.47489ZM5.53557 2.49458L2.90357 2.33458L2.78221 4.33089L5.41421 4.49089L5.53557 2.49458ZM1.84289 3.33274V5.50874H3.84289V3.33274H1.84289ZM2.84289 6.50874H5.00289V4.50874H2.84289V6.50874ZM4.00289 5.50874V7.49274H6.00289V5.50874H4.00289ZM5.07676 6.49547L2.91676 6.33547L2.76902 8.33L4.92902 8.49L5.07676 6.49547ZM1.84289 7.33274V10.8287H3.84289V7.33274H1.84289ZM9.96458 9.74874L9.1256 9.20453L9.12188 9.21035L9.96458 9.74874ZM6.68458 10.1647L5.98424 10.8785L5.98424 10.8785L6.68458 10.1647ZM6.69258 4.78874L7.42172 5.47311L7.42469 5.46992L6.69258 4.78874ZM12.1886 4.74874L11.4619 5.43578L11.4684 5.4425L12.1886 4.74874ZM12.1406 10.1167L11.4367 9.40643L11.4335 9.40963L12.1406 10.1167ZM9.42858 11.0367C9.99212 11.0367 10.4943 10.777 10.8073 10.2871L9.12188 9.21035C9.14089 9.18059 9.18645 9.12619 9.26526 9.08384C9.34281 9.04217 9.40682 9.03674 9.42858 9.03674V11.0367ZM10.8035 10.2929C11.074 9.87594 11.1566 9.39263 11.1566 8.94074H9.15658C9.15658 9.17151 9.11114 9.22686 9.12562 9.20454L10.8035 10.2929ZM11.1566 8.94074V6.41274H9.15658V8.94074H11.1566ZM11.1566 6.41274C11.1566 5.84582 11.0947 5.2776 10.877 4.81605C10.7619 4.57218 10.5863 4.32195 10.3196 4.13351C10.0437 3.93858 9.73058 3.85274 9.42058 3.85274V5.85274C9.35591 5.85274 9.25746 5.83189 9.16555 5.76696C9.08283 5.70852 9.06057 5.6533 9.06818 5.66943C9.07699 5.6881 9.10174 5.75218 9.12272 5.88559C9.14323 6.01604 9.15658 6.18947 9.15658 6.41274H11.1566ZM9.42058 3.85274C8.86676 3.85274 8.37726 4.10431 8.05985 4.56721L9.70931 5.69826C9.69232 5.72304 9.65031 5.7711 9.5776 5.80908C9.50539 5.8468 9.44475 5.85274 9.42058 5.85274V3.85274ZM8.05985 4.56721C7.77322 4.98521 7.69258 5.47784 7.69258 5.92474H9.69258C9.69258 5.81417 9.70318 5.74448 9.71243 5.70634C9.7214 5.66932 9.72619 5.67364 9.70931 5.69826L8.05985 4.56721ZM7.69258 5.92474V8.52474H9.69258V5.92474H7.69258ZM7.69258 8.52474C7.69258 9.07784 7.75471 9.63884 7.97744 10.0964C8.09548 10.3389 8.27419 10.5842 8.54157 10.7673C8.81655 10.9556 9.12533 11.0367 9.42858 11.0367V9.03674C9.48649 9.03674 9.5806 9.05485 9.67158 9.11715C9.75496 9.17425 9.78034 9.23058 9.77571 9.22106C9.76947 9.20824 9.746 9.15141 9.72567 9.02607C9.70579 8.90356 9.69258 8.73881 9.69258 8.52474H7.69258ZM9.36458 9.99674C8.26681 9.99674 7.68353 9.74391 7.38492 9.45093L5.98424 10.8785C6.81629 11.6949 8.01968 11.9967 9.36458 11.9967V9.99674ZM7.38492 9.45093C7.09279 9.16431 6.83658 8.59736 6.83658 7.50874H4.83658C4.83658 8.85211 5.14569 10.0558 5.98424 10.8785L7.38492 9.45093ZM6.83658 7.50874C6.83658 6.44516 7.08921 5.82736 7.42172 5.4731L5.96344 4.10437C5.15461 4.96611 4.83658 6.16164 4.83658 7.50874H6.83658ZM7.42469 5.46992C7.72514 5.147 8.32203 4.86874 9.47658 4.86874V2.86874C8.06046 2.86874 6.80135 3.2038 5.96046 4.10755L7.42469 5.46992ZM9.47658 4.86874C10.6043 4.86874 11.1787 5.13621 11.4619 5.43575L12.9152 4.06172C12.0891 3.18793 10.8556 2.86874 9.47658 2.86874V4.86874ZM11.4684 5.4425C11.7801 5.76614 12.0286 6.35173 12.0286 7.39674H14.0286C14.0286 6.07374 13.717 4.894 12.9088 4.05497L11.4684 5.4425ZM12.0286 7.39674C12.0286 8.48211 11.7656 9.08053 11.4367 9.40644L12.8445 10.827C13.6996 9.97961 14.0286 8.76469 14.0286 7.39674H12.0286ZM11.4335 9.40963C11.1127 9.73044 10.4997 9.99674 9.36458 9.99674V11.9967C10.7574 11.9967 11.9952 11.6764 12.8477 10.8238L11.4335 9.40963ZM17.6521 9.74874L16.8131 9.20453L16.8094 9.21035L17.6521 9.74874ZM14.3721 10.1647L13.6717 10.8785L13.6717 10.8785L14.3721 10.1647ZM14.3801 4.78874L15.1092 5.47311L15.1122 5.46992L14.3801 4.78874ZM19.8761 4.74874L19.1494 5.43578L19.1559 5.4425L19.8761 4.74874ZM19.8281 10.1167L19.1242 9.40643L19.121 9.40963L19.8281 10.1167ZM17.1161 11.0367C17.6796 11.0367 18.1818 10.777 18.4948 10.2871L16.8094 9.21035C16.8284 9.18059 16.8739 9.12619 16.9528 9.08384C17.0303 9.04217 17.0943 9.03674 17.1161 9.03674V11.0367ZM18.491 10.2929C18.7615 9.87594 18.8441 9.39263 18.8441 8.94074H16.8441C16.8441 9.17151 16.7986 9.22686 16.8131 9.20454L18.491 10.2929ZM18.8441 8.94074V6.41274H16.8441V8.94074H18.8441ZM18.8441 6.41274C18.8441 5.84582 18.7822 5.2776 18.5645 4.81605C18.4494 4.57218 18.2738 4.32195 18.0071 4.13351C17.7312 3.93858 17.4181 3.85274 17.1081 3.85274V5.85274C17.0434 5.85274 16.945 5.83189 16.853 5.76696C16.7703 5.70852 16.7481 5.6533 16.7557 5.66943C16.7645 5.6881 16.7892 5.75218 16.8102 5.88559C16.8307 6.01604 16.8441 6.18947 16.8441 6.41274H18.8441ZM17.1081 3.85274C16.5543 3.85274 16.0648 4.10431 15.7473 4.56721L17.3968 5.69826C17.3798 5.72304 17.3378 5.7711 17.2651 5.80908C17.1929 5.8468 17.1323 5.85274 17.1081 5.85274V3.85274ZM15.7473 4.56721C15.4607 4.98521 15.3801 5.47784 15.3801 5.92474H17.3801C17.3801 5.81417 17.3907 5.74448 17.3999 5.70634C17.4089 5.66932 17.4137 5.67364 17.3968 5.69826L15.7473 4.56721ZM15.3801 5.92474V8.52474H17.3801V5.92474H15.3801ZM15.3801 8.52474C15.3801 9.07784 15.4422 9.63884 15.6649 10.0964C15.783 10.3389 15.9617 10.5842 16.2291 10.7673C16.5041 10.9556 16.8128 11.0367 17.1161 11.0367V9.03674C17.174 9.03674 17.2681 9.05485 17.3591 9.11715C17.4425 9.17425 17.4678 9.23058 17.4632 9.22106C17.457 9.20824 17.4335 9.15141 17.4132 9.02607C17.3933 8.90356 17.3801 8.73881 17.3801 8.52474H15.3801ZM17.0521 9.99674C15.9543 9.99674 15.371 9.74391 15.0724 9.45093L13.6717 10.8785C14.5038 11.6949 15.7072 11.9967 17.0521 11.9967V9.99674ZM15.0724 9.45093C14.7803 9.16431 14.5241 8.59736 14.5241 7.50874H12.5241C12.5241 8.85211 12.8332 10.0558 13.6717 10.8785L15.0724 9.45093ZM14.5241 7.50874C14.5241 6.44516 14.7767 5.82736 15.1092 5.4731L13.6509 4.10437C12.8421 4.96611 12.5241 6.16164 12.5241 7.50874H14.5241ZM15.1122 5.46992C15.4126 5.147 16.0095 4.86874 17.1641 4.86874V2.86874C15.748 2.86874 14.4888 3.2038 13.648 4.10755L15.1122 5.46992ZM17.1641 4.86874C18.2918 4.86874 18.8662 5.13621 19.1494 5.43575L20.6027 4.06172C19.7766 3.18793 18.5431 2.86874 17.1641 2.86874V4.86874ZM19.1559 5.4425C19.4676 5.76614 19.7161 6.35173 19.7161 7.39674H21.7161C21.7161 6.07374 21.4045 4.894 20.5963 4.05497L19.1559 5.4425ZM19.7161 7.39674C19.7161 8.48211 19.4531 9.08053 19.1242 9.40644L20.532 10.827C21.3871 9.97961 21.7161 8.76469 21.7161 7.39674H19.7161ZM19.121 9.40963C18.8002 9.73044 18.1872 9.99674 17.0521 9.99674V11.9967C18.4449 11.9967 19.6827 11.6764 20.5352 10.8238L19.121 9.40963ZM26.0596 10.8287L25.1024 11.1181L25.3172 11.8287H26.0596V10.8287ZM25.7476 9.79674L26.7048 9.50735L26.0323 7.28293L24.8793 9.3006L25.7476 9.79674ZM25.5956 10.0207L24.8093 9.40292L24.7951 9.42089L24.7818 9.4395L25.5956 10.0207ZM25.3316 10.3087L26.0058 11.0472L26.0144 11.0394L26.0228 11.0314L25.3316 10.3087ZM24.4196 10.8287L24.1255 9.87296L24.1255 9.87296L24.4196 10.8287ZM21.8276 10.0207L21.0012 10.5838L21.0012 10.5838L21.8276 10.0207ZM21.4996 5.71674L22.4383 6.06155L22.4394 6.05848L21.4996 5.71674ZM22.4036 4.44474L21.7889 3.65593L21.7889 3.65594L22.4036 4.44474ZM24.8196 4.07674L24.5549 5.04106L24.5549 5.04106L24.8196 4.07674ZM25.5236 4.34874L25.0481 5.22844L26.5236 6.02602V4.34874H25.5236ZM25.5236 1.92474H26.5236V1.20604L25.8424 0.976917L25.5236 1.92474ZM24.6436 1.62874H23.6436V2.34743L24.3248 2.57655L24.6436 1.62874ZM24.6436 0.748736L24.5037 -0.241436L23.6436 -0.119947V0.748736H24.6436ZM27.4756 0.348735V-0.651265H27.4053L27.3357 -0.641437L27.4756 0.348735ZM28.0996 0.348735H29.0996V-0.651265H28.0996V0.348735ZM28.0996 10.8287V11.8287H29.0996V10.8287H28.0996ZM25.2276 9.30874L25.5287 10.2623L25.5512 10.2552L25.5733 10.2471L25.2276 9.30874ZM25.5236 9.15674L26.0783 9.98879L26.5236 9.69192V9.15674H25.5236ZM25.5236 5.13274H26.5236V4.33337L25.7438 4.15729L25.5236 5.13274ZM25.0676 5.07674L25.0676 4.07671L25.0601 4.07676L25.0676 5.07674ZM23.9956 6.71674L22.9956 6.71183V6.71674H23.9956ZM24.2596 8.97274L25.0836 8.40621L25.0836 8.40621L24.2596 8.97274ZM27.0168 10.5393L26.7048 9.50735L24.7904 10.0861L25.1024 11.1181L27.0168 10.5393ZM24.8793 9.3006C24.8633 9.32863 24.8408 9.36283 24.8093 9.40292L26.3819 10.6386C26.4677 10.5293 26.5465 10.4142 26.6158 10.2929L24.8793 9.3006ZM24.7818 9.4395C24.7863 9.43333 24.7794 9.44363 24.7524 9.47301C24.7269 9.5009 24.6903 9.53831 24.6404 9.58609L26.0228 11.0314C26.1595 10.9006 26.3011 10.7535 26.4093 10.602L24.7818 9.4395ZM24.6573 9.57025C24.5801 9.64075 24.4996 9.70133 24.4155 9.75308L25.4637 11.4564C25.6569 11.3375 25.8377 11.2007 26.0058 11.0472L24.6573 9.57025ZM24.4155 9.75308C24.3682 9.78214 24.278 9.82604 24.1255 9.87296L24.7137 11.7845C24.9772 11.7034 25.2336 11.598 25.4637 11.4564L24.4155 9.75308ZM24.1255 9.87296C24.0178 9.9061 23.8986 9.92474 23.7636 9.92474V11.9247C24.0872 11.9247 24.4054 11.8794 24.7137 11.7845L24.1255 9.87296ZM23.7636 9.92474C23.1363 9.92474 22.8383 9.72821 22.654 9.45763L21.0012 10.5838C21.6382 11.5186 22.6309 11.9247 23.7636 11.9247V9.92474ZM22.654 9.45763C22.398 9.08207 22.2116 8.46933 22.2116 7.50874H20.2116C20.2116 8.69214 20.4358 9.75407 21.0012 10.5838L22.654 9.45763ZM22.2116 7.50874C22.2116 6.93075 22.2942 6.45359 22.4382 6.06155L20.5609 5.37192C20.3209 6.02522 20.2116 6.74272 20.2116 7.50874H22.2116ZM22.4394 6.05848C22.5724 5.69254 22.7675 5.42887 23.0182 5.23354L21.7889 3.65594C21.2183 4.1006 20.8107 4.68493 20.5598 5.37499L22.4394 6.05848ZM23.0182 5.23354C23.2328 5.06636 23.5055 4.96474 23.8916 4.96474V2.96474C23.115 2.96474 22.3957 3.18311 21.7889 3.65593L23.0182 5.23354ZM23.8916 4.96474C24.1684 4.96474 24.3861 4.99475 24.5549 5.04106L25.0843 3.11241C24.709 3.00939 24.3081 2.96474 23.8916 2.96474V4.96474ZM24.5549 5.04106C24.7714 5.10051 24.9321 5.16574 25.0481 5.22844L25.9991 3.46903C25.7204 3.3184 25.4117 3.20229 25.0843 3.11241L24.5549 5.04106ZM26.5236 4.34874V1.92474H24.5236V4.34874H26.5236ZM25.8424 0.976917L24.9624 0.680917L24.3248 2.57655L25.2048 2.87255L25.8424 0.976917ZM25.6436 1.62874V0.748736H23.6436V1.62874H25.6436ZM24.7834 1.73891L27.6154 1.33891L27.3357 -0.641437L24.5037 -0.241436L24.7834 1.73891ZM27.4756 1.34874H28.0996V-0.651265H27.4756V1.34874ZM27.0996 0.348735V10.8287H29.0996V0.348735H27.0996ZM28.0996 9.82874H26.0596V11.8287H28.0996V9.82874ZM24.9316 10.3567C25.14 10.3567 25.3403 10.3218 25.5287 10.2623L24.9264 8.35515C24.919 8.35749 24.9162 8.35784 24.9175 8.35763C24.9189 8.3574 24.9238 8.35674 24.9316 8.35674V10.3567ZM25.5733 10.2471C25.753 10.1809 25.9215 10.0933 26.0783 9.98879L24.9689 8.32469C24.9337 8.34814 24.9048 8.36195 24.8819 8.37039L25.5733 10.2471ZM26.5236 9.15674V5.13274H24.5236V9.15674H26.5236ZM25.7438 4.15729C25.5215 4.1071 25.2946 4.07674 25.0676 4.07674V6.07674C25.1179 6.07674 25.1949 6.0837 25.3033 6.10818L25.7438 4.15729ZM25.0601 4.07676C24.4047 4.08169 23.8104 4.36249 23.4305 4.9436C23.0975 5.4531 22.9986 6.09014 22.9956 6.71183L24.9956 6.72164C24.9966 6.50092 25.0157 6.33657 25.0418 6.21883C25.0681 6.10054 25.0969 6.04969 25.1046 6.03787C25.1081 6.03251 25.0942 6.05329 25.0612 6.07036C25.0315 6.08572 25.0268 6.07707 25.0751 6.07671L25.0601 4.07676ZM22.9956 6.71674V7.83674H24.9956V6.71674H22.9956ZM22.9956 7.83674C22.9956 8.4269 23.0941 9.04269 23.4355 9.53926L25.0836 8.40621C25.073 8.39078 24.9956 8.24924 24.9956 7.83674H22.9956ZM23.4355 9.53926C23.7673 10.0219 24.2795 10.3567 24.9316 10.3567V8.35674C24.9427 8.35674 24.9619 8.35813 24.9865 8.36446C25.0113 8.37086 25.035 8.38066 25.0557 8.39249C25.0983 8.41682 25.1036 8.43521 25.0836 8.40621L23.4355 9.53926ZM32.3043 10.8287H31.3043V11.8287H32.3043V10.8287ZM32.3043 1.45274V0.452735H31.3043V1.45274H32.3043ZM34.9523 1.45274H35.9523V0.452735H34.9523V1.45274ZM34.9523 8.68474H33.9523V9.68474H34.9523V8.68474ZM37.3363 8.68474H38.3363V7.68474H37.3363V8.68474ZM37.3363 10.8287V11.8287H38.3363V10.8287H37.3363ZM33.3043 10.8287V1.45274H31.3043V10.8287H33.3043ZM32.3043 2.45274H34.9523V0.452735H32.3043V2.45274ZM33.9523 1.45274V8.68474H35.9523V1.45274H33.9523ZM34.9523 9.68474H37.3363V7.68474H34.9523V9.68474ZM36.3363 8.68474V10.8287H38.3363V8.68474H36.3363ZM37.3363 9.82874H32.3043V11.8287H37.3363V9.82874ZM41.6139 10.1167L42.5549 9.77839L41.9924 8.21381L40.8739 9.44406L41.6139 10.1167ZM41.5339 10.2047L40.7939 9.53206L40.7795 9.548L40.7657 9.56455L41.5339 10.2047ZM41.2859 10.4287L40.6798 9.6333L40.6704 9.64047L40.6612 9.64787L41.2859 10.4287ZM40.9099 10.6847L40.4001 9.82444L40.3929 9.8287L40.3858 9.83308L40.9099 10.6847ZM40.3979 10.9007L40.1198 9.94017L40.1083 9.94352L40.0968 9.94715L40.3979 10.9007ZM37.7659 8.10074L38.6806 8.50491L38.684 8.49717L37.7659 8.10074ZM38.1579 7.50874L37.4508 6.80163L37.4508 6.80163L38.1579 7.50874ZM38.7339 7.08474L39.2142 7.96183L39.2222 7.95748L39.23 7.95298L38.7339 7.08474ZM39.4059 6.78874L39.7016 7.74402L39.7085 7.74186L39.7155 7.73961L39.4059 6.78874ZM40.1259 6.60474L39.9378 5.62258L39.9378 5.62258L40.1259 6.60474ZM40.7979 6.50874L40.8787 7.50546L40.8787 7.50546L40.7979 6.50874ZM41.3659 6.48474V7.48474H42.3659V6.48474H41.3659ZM41.1019 5.65274L40.4862 6.44076L40.4921 6.44534L40.498 6.44983L41.1019 5.65274ZM39.2379 5.57274L39.4424 6.55159L39.4494 6.55014L39.4564 6.54858L39.2379 5.57274ZM38.3979 5.84474L37.4931 6.27053L37.9383 7.21667L38.8636 6.72965L38.3979 5.84474ZM37.8859 4.75674L37.3426 3.91717L36.609 4.39188L36.9811 5.18253L37.8859 4.75674ZM39.3019 4.14074L39.5917 5.09787L39.5997 5.09537L39.3019 4.14074ZM42.3979 4.02874L42.1038 4.98461L42.1173 4.98857L42.3979 4.02874ZM43.2379 4.55674L42.4763 5.20485L42.4838 5.21357L42.4914 5.22211L43.2379 4.55674ZM43.7019 5.50074L42.7286 5.73053L42.7294 5.73359L43.7019 5.50074ZM43.8379 10.2047H42.8379V10.3788L42.8967 10.5426L43.8379 10.2047ZM44.0619 10.8287V11.8287H45.4833L45.0031 10.4909L44.0619 10.8287ZM41.8699 10.8287L40.9289 11.1671L41.1668 11.8287H41.8699V10.8287ZM41.1739 9.54874L41.5877 10.4591L41.6045 10.4514L41.6211 10.4432L41.1739 9.54874ZM41.3179 9.46074L41.9581 10.229L41.9929 10.1999L42.025 10.1678L41.3179 9.46074ZM41.3659 9.41274L42.073 10.1198L42.3659 9.82695V9.41274H41.3659ZM41.3659 7.49274H42.3659V6.49274H41.3659V7.49274ZM40.5899 7.76474L41.2656 8.50189L41.2711 8.49686L41.2765 8.49175L40.5899 7.76474ZM40.8739 9.44406L40.7939 9.53206L42.2738 10.8774L42.3538 10.7894L40.8739 9.44406ZM40.7657 9.56455C40.7773 9.55057 40.7788 9.5511 40.7616 9.56663C40.7455 9.5812 40.7192 9.60334 40.6798 9.6333L41.8919 11.2242C42.0288 11.1199 42.179 10.9926 42.3021 10.8449L40.7657 9.56455ZM40.6612 9.64787C40.598 9.69846 40.5126 9.7578 40.4001 9.82444L41.4197 11.545C41.5952 11.441 41.7605 11.3297 41.9106 11.2096L40.6612 9.64787ZM40.3858 9.83308C40.3426 9.85965 40.26 9.89959 40.1198 9.94017L40.6759 11.8613C40.9411 11.7845 41.1998 11.6805 41.434 11.5364L40.3858 9.83308ZM40.0968 9.94715C39.9919 9.98027 39.8855 9.99674 39.7739 9.99674V11.9967C40.089 11.9967 40.3986 11.9492 40.699 11.8543L40.0968 9.94715ZM39.7739 9.99674C39.2052 9.99674 38.963 9.85646 38.857 9.75169C38.7531 9.64895 38.6139 9.41575 38.6139 8.86074H36.6139C36.6139 9.72972 36.8346 10.5645 37.4507 11.1738C38.0648 11.781 38.9025 11.9967 39.7739 11.9967V9.99674ZM38.6139 8.86074C38.6139 8.70773 38.6412 8.59399 38.6806 8.5049L36.8512 7.69657C36.6879 8.06614 36.6139 8.45907 36.6139 8.86074H38.6139ZM38.684 8.49717C38.7417 8.36351 38.8051 8.27571 38.865 8.21584L37.4508 6.80163C37.1906 7.06176 36.9928 7.36863 36.8478 7.7043L38.684 8.49717ZM38.865 8.21584C38.9499 8.13098 39.063 8.04466 39.2142 7.96183L38.2536 6.20764C37.9568 6.37015 37.6859 6.56649 37.4508 6.80163L38.865 8.21584ZM39.23 7.95298C39.3968 7.85765 39.5539 7.78972 39.7016 7.74402L39.1102 5.83345C38.8098 5.92642 38.5189 6.05582 38.2378 6.21649L39.23 7.95298ZM39.7155 7.73961C39.9028 7.67863 40.102 7.62747 40.314 7.58689L39.9378 5.62258C39.6484 5.678 39.3677 5.74951 39.0963 5.83786L39.7155 7.73961ZM40.314 7.58689C40.5387 7.54385 40.7259 7.51785 40.8787 7.50546L40.7171 5.51201C40.4752 5.53162 40.2144 5.56962 39.9378 5.62258L40.314 7.58689ZM40.8787 7.50546C41.0516 7.49145 41.2138 7.48474 41.3659 7.48474V5.48474C41.1553 5.48474 40.9389 5.49402 40.7171 5.51201L40.8787 7.50546ZM42.3659 6.48474V6.34074H40.3659V6.48474H42.3659ZM42.3659 6.34074C42.3659 5.8568 42.2329 5.25503 41.7057 4.85564L40.498 6.44983C40.4627 6.42309 40.4326 6.39183 40.4089 6.35926C40.3856 6.32728 40.3727 6.29986 40.3663 6.28299C40.3547 6.25286 40.3659 6.26304 40.3659 6.34074H42.3659ZM41.7175 4.86471C41.2796 4.5226 40.7235 4.45274 40.2699 4.45274V6.45274C40.4084 6.45274 40.4912 6.46519 40.5322 6.47504C40.5739 6.48506 40.5433 6.48533 40.4862 6.44076L41.7175 4.86471ZM40.2699 4.45274C39.8584 4.45274 39.4409 4.50253 39.0194 4.59689L39.4564 6.54858C39.7495 6.48294 40.0201 6.45274 40.2699 6.45274V4.45274ZM39.0334 4.59388C38.6321 4.67772 38.2509 4.79204 37.9321 4.95982L38.8636 6.72965C38.9502 6.6841 39.129 6.61709 39.4424 6.55159L39.0334 4.59388ZM39.3027 5.41894L38.7907 4.33094L36.9811 5.18253L37.4931 6.27053L39.3027 5.41894ZM38.4291 5.59631C38.6886 5.42843 39.0666 5.25679 39.5917 5.09783L39.0121 3.18364C38.3745 3.37669 37.8085 3.61571 37.3426 3.91717L38.4291 5.59631ZM39.5997 5.09537C40.0856 4.94379 40.5773 4.86874 41.0779 4.86874V2.86874C40.3732 2.86874 39.6808 2.97502 39.0041 3.1861L39.5997 5.09537ZM41.0779 4.86874C41.5538 4.86874 41.8858 4.91743 42.1038 4.98451L42.692 3.07296C42.2167 2.92671 41.6686 2.86874 41.0779 2.86874V4.86874ZM42.1173 4.98857C42.2956 5.04069 42.4017 5.11716 42.4763 5.20485L43.9994 3.90862C43.6474 3.49498 43.1935 3.21944 42.6785 3.0689L42.1173 4.98857ZM42.4914 5.22211C42.5793 5.32073 42.6686 5.476 42.7287 5.73053L44.6751 5.27094C44.5539 4.75747 44.3338 4.28341 43.9844 3.89137L42.4914 5.22211ZM42.7294 5.73359C42.7951 6.00798 42.8379 6.40523 42.8379 6.94874H44.8379C44.8379 6.31891 44.79 5.75082 44.6744 5.26788L42.7294 5.73359ZM42.8379 6.94874V10.2047H44.8379V6.94874H42.8379ZM42.8967 10.5426L43.1207 11.1666L45.0031 10.4909L44.7791 9.86687L42.8967 10.5426ZM44.0619 9.82874H41.8699V11.8287H44.0619V9.82874ZM42.8109 10.4904L42.5549 9.77839L40.6729 10.4551L40.9289 11.1671L42.8109 10.4904ZM40.9819 10.5887C41.183 10.5887 41.3894 10.5492 41.5877 10.4591L40.7601 8.63837C40.841 8.60158 40.9195 8.58874 40.9819 8.58874V10.5887ZM41.6211 10.4432C41.7124 10.3975 41.8394 10.3278 41.9581 10.229L40.6777 8.69251C40.6945 8.67852 40.7083 8.66841 40.7174 8.662C40.7267 8.6555 40.7333 8.65135 40.7364 8.64945C40.742 8.64603 40.7398 8.64775 40.7267 8.65431L41.6211 10.4432ZM42.025 10.1678C42.0251 10.1678 42.0251 10.1677 42.0252 10.1677C42.0252 10.1676 42.0253 10.1675 42.0254 10.1675C42.0254 10.1674 42.0255 10.1673 42.0256 10.1673C42.0256 10.1672 42.0257 10.1672 42.0257 10.1671C42.0258 10.167 42.0259 10.167 42.0259 10.1669C42.026 10.1668 42.0261 10.1668 42.0261 10.1667C42.0262 10.1667 42.0262 10.1666 42.0263 10.1665C42.0264 10.1665 42.0264 10.1664 42.0265 10.1664C42.0265 10.1663 42.0266 10.1662 42.0267 10.1662C42.0267 10.1661 42.0268 10.166 42.0269 10.166C42.0269 10.1659 42.027 10.1659 42.027 10.1658C42.0271 10.1657 42.0272 10.1657 42.0272 10.1656C42.0273 10.1656 42.0273 10.1655 42.0274 10.1654C42.0275 10.1654 42.0275 10.1653 42.0276 10.1653C42.0276 10.1652 42.0277 10.1651 42.0278 10.1651C42.0278 10.165 42.0279 10.165 42.0279 10.1649C42.028 10.1648 42.0281 10.1648 42.0281 10.1647C42.0282 10.1646 42.0283 10.1646 42.0283 10.1645C42.0284 10.1645 42.0284 10.1644 42.0285 10.1643C42.0286 10.1643 42.0286 10.1642 42.0287 10.1642C42.0287 10.1641 42.0288 10.164 42.0289 10.164C42.0289 10.1639 42.029 10.1639 42.029 10.1638C42.0291 10.1637 42.0292 10.1637 42.0292 10.1636C42.0293 10.1636 42.0293 10.1635 42.0294 10.1634C42.0295 10.1634 42.0295 10.1633 42.0296 10.1633C42.0296 10.1632 42.0297 10.1632 42.0297 10.1631C42.0298 10.163 42.0299 10.163 42.0299 10.1629C42.03 10.1629 42.03 10.1628 42.0301 10.1627C42.0302 10.1627 42.0302 10.1626 42.0303 10.1626C42.0303 10.1625 42.0304 10.1624 42.0305 10.1624C42.0305 10.1623 42.0306 10.1623 42.0306 10.1622C42.0307 10.1621 42.0307 10.1621 42.0308 10.162C42.0309 10.162 42.0309 10.1619 42.031 10.1619C42.031 10.1618 42.0311 10.1617 42.0312 10.1617C42.0312 10.1616 42.0313 10.1616 42.0313 10.1615C42.0314 10.1614 42.0315 10.1614 42.0315 10.1613C42.0316 10.1613 42.0316 10.1612 42.0317 10.1612C42.0317 10.1611 42.0318 10.161 42.0319 10.161C42.0319 10.1609 42.032 10.1609 42.032 10.1608C42.0321 10.1608 42.0321 10.1607 42.0322 10.1606C42.0323 10.1606 42.0323 10.1605 42.0324 10.1605C42.0324 10.1604 42.0325 10.1603 42.0325 10.1603C42.0326 10.1602 42.0327 10.1602 42.0327 10.1601C42.0328 10.1601 42.0328 10.16 42.0329 10.1599C42.0329 10.1599 42.033 10.1598 42.0331 10.1598C42.0331 10.1597 42.0332 10.1597 42.0332 10.1596C42.0333 10.1595 42.0333 10.1595 42.0334 10.1594C42.0335 10.1594 42.0335 10.1593 42.0336 10.1593C42.0336 10.1592 42.0337 10.1592 42.0337 10.1591C42.0338 10.159 42.0339 10.159 42.0339 10.1589C42.034 10.1589 42.034 10.1588 42.0341 10.1588C42.0341 10.1587 42.0342 10.1586 42.0343 10.1586C42.0343 10.1585 42.0344 10.1585 42.0344 10.1584C42.0345 10.1584 42.0345 10.1583 42.0346 10.1583C42.0346 10.1582 42.0347 10.1581 42.0348 10.1581C42.0348 10.158 42.0349 10.158 42.0349 10.1579C42.035 10.1579 42.035 10.1578 42.0351 10.1578C42.0351 10.1577 42.0352 10.1576 42.0353 10.1576C42.0353 10.1575 42.0354 10.1575 42.0354 10.1574C42.0355 10.1574 42.0355 10.1573 42.0356 10.1573C42.0356 10.1572 42.0357 10.1571 42.0358 10.1571C42.0358 10.157 42.0359 10.157 42.0359 10.1569C42.036 10.1569 42.036 10.1568 42.0361 10.1568C42.0361 10.1567 42.0362 10.1566 42.0362 10.1566C42.0363 10.1565 42.0364 10.1565 42.0364 10.1564C42.0365 10.1564 42.0365 10.1563 42.0366 10.1563C42.0366 10.1562 42.0367 10.1562 42.0367 10.1561C42.0368 10.156 42.0368 10.156 42.0369 10.1559C42.037 10.1559 42.037 10.1558 42.0371 10.1558C42.0371 10.1557 42.0372 10.1557 42.0372 10.1556C42.0373 10.1556 42.0373 10.1555 42.0374 10.1555C42.0374 10.1554 42.0375 10.1553 42.0375 10.1553C42.0376 10.1552 42.0377 10.1552 42.0377 10.1551C42.0378 10.1551 42.0378 10.155 42.0379 10.155C42.0379 10.1549 42.038 10.1549 42.038 10.1548C42.0381 10.1548 42.0381 10.1547 42.0382 10.1547C42.0382 10.1546 42.0383 10.1545 42.0383 10.1545C42.0384 10.1544 42.0385 10.1544 42.0385 10.1543C42.0386 10.1543 42.0386 10.1542 42.0387 10.1542C42.0387 10.1541 42.0388 10.1541 42.0388 10.154C42.0389 10.154 42.0389 10.1539 42.039 10.1539C42.039 10.1538 42.0391 10.1538 42.0391 10.1537C42.0392 10.1536 42.0392 10.1536 42.0393 10.1535C42.0393 10.1535 42.0394 10.1534 42.0395 10.1534C42.0395 10.1533 42.0396 10.1533 42.0396 10.1532C42.0397 10.1532 42.0397 10.1531 42.0398 10.1531C42.0398 10.153 42.0399 10.153 42.0399 10.1529C42.04 10.1529 42.04 10.1528 42.0401 10.1528C42.0401 10.1527 42.0402 10.1527 42.0402 10.1526C42.0403 10.1526 42.0403 10.1525 42.0404 10.1525C42.0404 10.1524 42.0405 10.1523 42.0405 10.1523C42.0406 10.1522 42.0406 10.1522 42.0407 10.1521C42.0407 10.1521 42.0408 10.152 42.0408 10.152C42.0409 10.1519 42.041 10.1519 42.041 10.1518C42.0411 10.1518 42.0411 10.1517 42.0412 10.1517C42.0412 10.1516 42.0413 10.1516 42.0413 10.1515C42.0414 10.1515 42.0414 10.1514 42.0415 10.1514C42.0415 10.1513 42.0416 10.1513 42.0416 10.1512C42.0417 10.1512 42.0417 10.1511 42.0418 10.1511C42.0418 10.151 42.0419 10.151 42.0419 10.1509C42.042 10.1509 42.042 10.1508 42.0421 10.1508C42.0421 10.1507 42.0422 10.1507 42.0422 10.1506C42.0423 10.1506 42.0423 10.1505 42.0424 10.1505C42.0424 10.1504 42.0425 10.1504 42.0425 10.1503C42.0426 10.1503 42.0426 10.1502 42.0427 10.1502C42.0427 10.1501 42.0428 10.1501 42.0428 10.15C42.0429 10.15 42.0429 10.1499 42.043 10.1499C42.043 10.1498 42.0431 10.1498 42.0431 10.1497C42.0432 10.1497 42.0432 10.1496 42.0433 10.1496C42.0433 10.1495 42.0434 10.1495 42.0434 10.1494C42.0435 10.1494 42.0435 10.1493 42.0436 10.1493C42.0436 10.1492 42.0437 10.1492 42.0437 10.1491C42.0437 10.1491 42.0438 10.149 42.0438 10.149C42.0439 10.1489 42.0439 10.1489 42.044 10.1488C42.044 10.1488 42.0441 10.1488 42.0441 10.1487C42.0442 10.1487 42.0442 10.1486 42.0443 10.1486C42.0443 10.1485 42.0444 10.1485 42.0444 10.1484C42.0445 10.1484 42.0445 10.1483 42.0446 10.1483C42.0446 10.1482 42.0447 10.1482 42.0447 10.1481C42.0448 10.1481 42.0448 10.148 42.0449 10.148C42.0449 10.1479 42.045 10.1479 42.045 10.1478C42.0451 10.1478 42.0451 10.1477 42.0451 10.1477C42.0452 10.1476 42.0452 10.1476 42.0453 10.1476C42.0453 10.1475 42.0454 10.1475 42.0454 10.1474C42.0455 10.1474 42.0455 10.1473 42.0456 10.1473C42.0456 10.1472 42.0457 10.1472 42.0457 10.1471C42.0458 10.1471 42.0458 10.147 42.0459 10.147C42.0459 10.1469 42.0459 10.1469 42.046 10.1468C42.046 10.1468 42.0461 10.1467 42.0461 10.1467C42.0462 10.1467 42.0462 10.1466 42.0463 10.1466C42.0463 10.1465 42.0464 10.1465 42.0464 10.1464C42.0465 10.1464 42.0465 10.1463 42.0466 10.1463C42.0466 10.1462 42.0466 10.1462 42.0467 10.1461C42.0467 10.1461 42.0468 10.1461 42.0468 10.146C42.0469 10.146 42.0469 10.1459 42.047 10.1459C42.047 10.1458 42.0471 10.1458 42.0471 10.1457C42.0472 10.1457 42.0472 10.1456 42.0472 10.1456C42.0473 10.1455 42.0473 10.1455 42.0474 10.1455C42.0474 10.1454 42.0475 10.1454 42.0475 10.1453C42.0476 10.1453 42.0476 10.1452 42.0477 10.1452C42.0477 10.1451 42.0477 10.1451 42.0478 10.145C42.0478 10.145 42.0479 10.145 42.0479 10.1449C42.048 10.1449 42.048 10.1448 42.0481 10.1448C42.0481 10.1447 42.0482 10.1447 42.0482 10.1446C42.0482 10.1446 42.0483 10.1445 42.0483 10.1445C42.0484 10.1445 42.0484 10.1444 42.0485 10.1444C42.0485 10.1443 42.0486 10.1443 42.0486 10.1442C42.0486 10.1442 42.0487 10.1441 42.0487 10.1441C42.0488 10.1441 42.0488 10.144 42.0489 10.144C42.0489 10.1439 42.049 10.1439 42.049 10.1438C42.049 10.1438 42.0491 10.1437 42.0491 10.1437C42.0492 10.1437 42.0492 10.1436 42.0493 10.1436C42.0493 10.1435 42.0494 10.1435 42.0494 10.1434C42.0494 10.1434 42.0495 10.1434 42.0495 10.1433C42.0496 10.1433 42.0496 10.1432 42.0497 10.1432C42.0497 10.1431 42.0497 10.1431 42.0498 10.143C42.0498 10.143 42.0499 10.143 42.0499 10.1429C42.05 10.1429 42.05 10.1428 42.05 10.1428C42.0501 10.1427 42.0501 10.1427 42.0502 10.1427C42.0502 10.1426 42.0503 10.1426 42.0503 10.1425C42.0504 10.1425 42.0504 10.1424 42.0504 10.1424C42.0505 10.1424 42.0505 10.1423 42.0506 10.1423C42.0506 10.1422 42.0507 10.1422 42.0507 10.1421C42.0507 10.1421 42.0508 10.1421 42.0508 10.142C42.0509 10.142 42.0509 10.1419 42.0509 10.1419C42.051 10.1418 42.051 10.1418 42.0511 10.1418C42.0511 10.1417 42.0512 10.1417 42.0512 10.1416C42.0512 10.1416 42.0513 10.1416 42.0513 10.1415C42.0514 10.1415 42.0514 10.1414 42.0515 10.1414C42.0515 10.1413 42.0515 10.1413 42.0516 10.1413C42.0516 10.1412 42.0517 10.1412 42.0517 10.1411C42.0517 10.1411 42.0518 10.1411 42.0518 10.141C42.0519 10.141 42.0519 10.1409 42.052 10.1409C42.052 10.1408 42.052 10.1408 42.0521 10.1408C42.0521 10.1407 42.0522 10.1407 42.0522 10.1406C42.0522 10.1406 42.0523 10.1406 42.0523 10.1405C42.0524 10.1405 42.0524 10.1404 42.0524 10.1404C42.0525 10.1404 42.0525 10.1403 42.0526 10.1403C42.0526 10.1402 42.0527 10.1402 42.0527 10.1401C42.0527 10.1401 42.0528 10.1401 42.0528 10.14C42.0529 10.14 42.0529 10.1399 42.0529 10.1399C42.053 10.1399 42.053 10.1398 42.0531 10.1398C42.0531 10.1397 42.0531 10.1397 42.0532 10.1397C42.0532 10.1396 42.0533 10.1396 42.0533 10.1395C42.0533 10.1395 42.0534 10.1395 42.0534 10.1394C42.0535 10.1394 42.0535 10.1393 42.0535 10.1393C42.0536 10.1393 42.0536 10.1392 42.0537 10.1392C42.0537 10.1391 42.0537 10.1391 42.0538 10.1391C42.0538 10.139 42.0539 10.139 42.0539 10.1389C42.0539 10.1389 42.054 10.1389 42.054 10.1388C42.0541 10.1388 42.0541 10.1387 42.0541 10.1387C42.0542 10.1387 42.0542 10.1386 42.0542 10.1386C42.0543 10.1386 42.0543 10.1385 42.0544 10.1385C42.0544 10.1384 42.0544 10.1384 42.0545 10.1384C42.0545 10.1383 42.0546 10.1383 42.0546 10.1382C42.0546 10.1382 42.0547 10.1382 42.0547 10.1381C42.0548 10.1381 42.0548 10.138 42.0548 10.138C42.0549 10.138 42.0549 10.1379 42.0549 10.1379C42.055 10.1379 42.055 10.1378 42.0551 10.1378C42.0551 10.1377 42.0551 10.1377 42.0552 10.1377C42.0552 10.1376 42.0552 10.1376 42.0553 10.1376C42.0553 10.1375 42.0554 10.1375 42.0554 10.1374C42.0554 10.1374 42.0555 10.1374 42.0555 10.1373C42.0556 10.1373 42.0556 10.1373 42.0556 10.1372C42.0557 10.1372 42.0557 10.1371 42.0557 10.1371C42.0558 10.1371 42.0558 10.137 42.0559 10.137C42.0559 10.137 42.0559 10.1369 42.056 10.1369C42.056 10.1368 42.056 10.1368 42.0561 10.1368C42.0561 10.1367 42.0561 10.1367 42.0562 10.1367C42.0562 10.1366 42.0563 10.1366 42.0563 10.1365C42.0563 10.1365 42.0564 10.1365 42.0564 10.1364C42.0564 10.1364 42.0565 10.1364 42.0565 10.1363C42.0566 10.1363 42.0566 10.1362 42.0566 10.1362C42.0567 10.1362 42.0567 10.1361 42.0567 10.1361C42.0568 10.1361 42.0568 10.136 42.0568 10.136C42.0569 10.136 42.0569 10.1359 42.057 10.1359C42.057 10.1358 42.057 10.1358 42.0571 10.1358C42.0571 10.1357 42.0571 10.1357 42.0572 10.1357C42.0572 10.1356 42.0572 10.1356 42.0573 10.1356C42.0573 10.1355 42.0573 10.1355 42.0574 10.1355C42.0574 10.1354 42.0575 10.1354 42.0575 10.1353C42.0575 10.1353 42.0576 10.1353 42.0576 10.1352C42.0576 10.1352 42.0577 10.1352 42.0577 10.1351C42.0577 10.1351 42.0578 10.1351 42.0578 10.135C42.0578 10.135 42.0579 10.135 42.0579 10.1349C42.0579 10.1349 42.058 10.1349 42.058 10.1348C42.0581 10.1348 42.0581 10.1348 42.0581 10.1347C42.0582 10.1347 42.0582 10.1346 42.0582 10.1346C42.0583 10.1346 42.0583 10.1345 42.0583 10.1345C42.0584 10.1345 42.0584 10.1344 42.0584 10.1344C42.0585 10.1344 42.0585 10.1343 42.0585 10.1343C42.0586 10.1343 42.0586 10.1342 42.0586 10.1342C42.0587 10.1342 42.0587 10.1341 42.0587 10.1341C42.0588 10.1341 42.0588 10.134 42.0588 10.134C42.0589 10.134 42.0589 10.1339 42.0589 10.1339C42.059 10.1339 42.059 10.1338 42.059 10.1338C42.0591 10.1338 42.0591 10.1337 42.0591 10.1337C42.0592 10.1337 42.0592 10.1336 42.0592 10.1336C42.0593 10.1336 42.0593 10.1335 42.0593 10.1335C42.0594 10.1335 42.0594 10.1334 42.0594 10.1334C42.0595 10.1334 42.0595 10.1333 42.0595 10.1333C42.0596 10.1333 42.0596 10.1332 42.0596 10.1332C42.0597 10.1332 42.0597 10.1331 42.0597 10.1331C42.0598 10.1331 42.0598 10.133 42.0598 10.133C42.0599 10.133 42.0599 10.1329 42.0599 10.1329C42.06 10.1329 42.06 10.1328 42.06 10.1328C42.0601 10.1328 42.0601 10.1327 42.0601 10.1327C42.0602 10.1327 42.0602 10.1326 42.0602 10.1326C42.0603 10.1326 42.0603 10.1325 42.0603 10.1325C42.0604 10.1325 42.0604 10.1324 42.0604 10.1324C42.0605 10.1324 42.0605 10.1323 42.0605 10.1323C42.0606 10.1323 42.0606 10.1323 42.0606 10.1322C42.0606 10.1322 42.0607 10.1322 42.0607 10.1321C42.0607 10.1321 42.0608 10.1321 42.0608 10.132C42.0608 10.132 42.0609 10.132 42.0609 10.1319C42.0609 10.1319 42.061 10.1319 42.061 10.1318C42.061 10.1318 42.0611 10.1318 42.0611 10.1317C42.0611 10.1317 42.0612 10.1317 42.0612 10.1317C42.0612 10.1316 42.0612 10.1316 42.0613 10.1316C42.0613 10.1315 42.0613 10.1315 42.0614 10.1315C42.0614 10.1314 42.0614 10.1314 42.0615 10.1314C42.0615 10.1313 42.0615 10.1313 42.0616 10.1313C42.0616 10.1313 42.0616 10.1312 42.0616 10.1312C42.0617 10.1312 42.0617 10.1311 42.0617 10.1311C42.0618 10.1311 42.0618 10.131 42.0618 10.131C42.0619 10.131 42.0619 10.131 42.0619 10.1309C42.0619 10.1309 42.062 10.1309 42.062 10.1308C42.062 10.1308 42.0621 10.1308 42.0621 10.1307C42.0621 10.1307 42.0622 10.1307 42.0622 10.1307C42.0622 10.1306 42.0622 10.1306 42.0623 10.1306C42.0623 10.1305 42.0623 10.1305 42.0624 10.1305C42.0624 10.1304 42.0624 10.1304 42.0624 10.1304C42.0625 10.1304 42.0625 10.1303 42.0625 10.1303C42.0626 10.1303 42.0626 10.1302 42.0626 10.1302C42.0627 10.1302 42.0627 10.1302 42.0627 10.1301C42.0627 10.1301 42.0628 10.1301 42.0628 10.13C42.0628 10.13 42.0629 10.13 42.0629 10.13C42.0629 10.1299 42.0629 10.1299 42.063 10.1299C42.063 10.1298 42.063 10.1298 42.0631 10.1298C42.0631 10.1298 42.0631 10.1297 42.0631 10.1297C42.0632 10.1297 42.0632 10.1296 42.0632 10.1296C42.0633 10.1296 42.0633 10.1296 42.0633 10.1295C42.0633 10.1295 42.0634 10.1295 42.0634 10.1294C42.0634 10.1294 42.0634 10.1294 42.0635 10.1294C42.0635 10.1293 42.0635 10.1293 42.0636 10.1293C42.0636 10.1293 42.0636 10.1292 42.0636 10.1292C42.0637 10.1292 42.0637 10.1291 42.0637 10.1291C42.0638 10.1291 42.0638 10.1291 42.0638 10.129C42.0638 10.129 42.0639 10.129 42.0639 10.1289C42.0639 10.1289 42.0639 10.1289 42.064 10.1289C42.064 10.1288 42.064 10.1288 42.0641 10.1288C42.0641 10.1288 42.0641 10.1287 42.0641 10.1287C42.0642 10.1287 42.0642 10.1287 42.0642 10.1286C42.0642 10.1286 42.0643 10.1286 42.0643 10.1285C42.0643 10.1285 42.0643 10.1285 42.0644 10.1285C42.0644 10.1284 42.0644 10.1284 42.0645 10.1284C42.0645 10.1284 42.0645 10.1283 42.0645 10.1283C42.0646 10.1283 42.0646 10.1283 42.0646 10.1282C42.0646 10.1282 42.0647 10.1282 42.0647 10.1282C42.0647 10.1281 42.0647 10.1281 42.0648 10.1281C42.0648 10.128 42.0648 10.128 42.0648 10.128C42.0649 10.128 42.0649 10.1279 42.0649 10.1279C42.0649 10.1279 42.065 10.1279 42.065 10.1278C42.065 10.1278 42.065 10.1278 42.0651 10.1278C42.0651 10.1277 42.0651 10.1277 42.0652 10.1277C42.0652 10.1277 42.0652 10.1276 42.0652 10.1276C42.0653 10.1276 42.0653 10.1276 42.0653 10.1275C42.0653 10.1275 42.0654 10.1275 42.0654 10.1275C42.0654 10.1274 42.0654 10.1274 42.0655 10.1274C42.0655 10.1274 42.0655 10.1273 42.0655 10.1273C42.0655 10.1273 42.0656 10.1273 42.0656 10.1272C42.0656 10.1272 42.0656 10.1272 42.0657 10.1272C42.0657 10.1271 42.0657 10.1271 42.0657 10.1271C42.0658 10.1271 42.0658 10.127 42.0658 10.127C42.0658 10.127 42.0659 10.127 42.0659 10.1269C42.0659 10.1269 42.0659 10.1269 42.066 10.1269C42.066 10.1269 42.066 10.1268 42.066 10.1268C42.0661 10.1268 42.0661 10.1268 42.0661 10.1267C42.0661 10.1267 42.0662 10.1267 42.0662 10.1267C42.0662 10.1266 42.0662 10.1266 42.0662 10.1266C42.0663 10.1266 42.0663 10.1265 42.0663 10.1265C42.0663 10.1265 42.0664 10.1265 42.0664 10.1265C42.0664 10.1264 42.0664 10.1264 42.0665 10.1264C42.0665 10.1264 42.0665 10.1263 42.0665 10.1263C42.0665 10.1263 42.0666 10.1263 42.0666 10.1262C42.0666 10.1262 42.0666 10.1262 42.0667 10.1262C42.0667 10.1262 42.0667 10.1261 42.0667 10.1261C42.0668 10.1261 42.0668 10.1261 42.0668 10.126C42.0668 10.126 42.0668 10.126 42.0669 10.126C42.0669 10.126 42.0669 10.1259 42.0669 10.1259C42.067 10.1259 42.067 10.1259 42.067 10.1258C42.067 10.1258 42.067 10.1258 42.0671 10.1258C42.0671 10.1258 42.0671 10.1257 42.0671 10.1257C42.0672 10.1257 42.0672 10.1257 42.0672 10.1256C42.0672 10.1256 42.0672 10.1256 42.0673 10.1256C42.0673 10.1256 42.0673 10.1255 42.0673 10.1255C42.0673 10.1255 42.0674 10.1255 42.0674 10.1255C42.0674 10.1254 42.0674 10.1254 42.0675 10.1254C42.0675 10.1254 42.0675 10.1253 42.0675 10.1253C42.0675 10.1253 42.0676 10.1253 42.0676 10.1253C42.0676 10.1252 42.0676 10.1252 42.0676 10.1252C42.0677 10.1252 42.0677 10.1252 42.0677 10.1251C42.0677 10.1251 42.0677 10.1251 42.0678 10.1251C42.0678 10.1251 42.0678 10.125 42.0678 10.125C42.0678 10.125 42.0679 10.125 42.0679 10.1249C42.0679 10.1249 42.0679 10.1249 42.068 10.1249C42.068 10.1249 42.068 10.1248 42.068 10.1248C42.068 10.1248 42.0681 10.1248 42.0681 10.1248C42.0681 10.1247 42.0681 10.1247 42.0681 10.1247C42.0682 10.1247 42.0682 10.1247 42.0682 10.1246C42.0682 10.1246 42.0682 10.1246 42.0682 10.1246C42.0683 10.1246 42.0683 10.1245 42.0683 10.1245C42.0683 10.1245 42.0683 10.1245 42.0684 10.1245C42.0684 10.1245 42.0684 10.1244 42.0684 10.1244C42.0684 10.1244 42.0685 10.1244 42.0685 10.1244C42.0685 10.1243 42.0685 10.1243 42.0685 10.1243C42.0686 10.1243 42.0686 10.1243 42.0686 10.1242C42.0686 10.1242 42.0686 10.1242 42.0687 10.1242C42.0687 10.1242 42.0687 10.1241 42.0687 10.1241C42.0687 10.1241 42.0687 10.1241 42.0688 10.1241C42.0688 10.1241 42.0688 10.124 42.0688 10.124C42.0688 10.124 42.0689 10.124 42.0689 10.124C42.0689 10.1239 42.0689 10.1239 42.0689 10.1239C42.0689 10.1239 42.069 10.1239 42.069 10.1239C42.069 10.1238 42.069 10.1238 42.069 10.1238C42.0691 10.1238 42.0691 10.1238 42.0691 10.1237C42.0691 10.1237 42.0691 10.1237 42.0691 10.1237C42.0692 10.1237 42.0692 10.1237 42.0692 10.1236C42.0692 10.1236 42.0692 10.1236 42.0693 10.1236C42.0693 10.1236 42.0693 10.1236 42.0693 10.1235C42.0693 10.1235 42.0693 10.1235 42.0694 10.1235C42.0694 10.1235 42.0694 10.1234 42.0694 10.1234C42.0694 10.1234 42.0694 10.1234 42.0695 10.1234C42.0695 10.1234 42.0695 10.1233 42.0695 10.1233C42.0695 10.1233 42.0695 10.1233 42.0696 10.1233C42.0696 10.1233 42.0696 10.1232 42.0696 10.1232C42.0696 10.1232 42.0696 10.1232 42.0697 10.1232C42.0697 10.1232 42.0697 10.1231 42.0697 10.1231C42.0697 10.1231 42.0697 10.1231 42.0698 10.1231C42.0698 10.1231 42.0698 10.123 42.0698 10.123C42.0698 10.123 42.0698 10.123 42.0699 10.123C42.0699 10.123 42.0699 10.123 42.0699 10.1229C42.0699 10.1229 42.0699 10.1229 42.0699 10.1229C42.07 10.1229 42.07 10.1229 42.07 10.1228C42.07 10.1228 42.07 10.1228 42.07 10.1228C42.0701 10.1228 42.0701 10.1228 42.0701 10.1227C42.0701 10.1227 42.0701 10.1227 42.0701 10.1227C42.0702 10.1227 42.0702 10.1227 42.0702 10.1227C42.0702 10.1226 42.0702 10.1226 42.0702 10.1226C42.0702 10.1226 42.0703 10.1226 42.0703 10.1226C42.0703 10.1226 42.0703 10.1225 42.0703 10.1225C42.0703 10.1225 42.0703 10.1225 42.0704 10.1225C42.0704 10.1225 42.0704 10.1225 42.0704 10.1224C42.0704 10.1224 42.0704 10.1224 42.0704 10.1224C42.0705 10.1224 42.0705 10.1224 42.0705 10.1223C42.0705 10.1223 42.0705 10.1223 42.0705 10.1223C42.0705 10.1223 42.0706 10.1223 42.0706 10.1223C42.0706 10.1223 42.0706 10.1222 42.0706 10.1222C42.0706 10.1222 42.0706 10.1222 42.0707 10.1222C42.0707 10.1222 42.0707 10.1222 42.0707 10.1221C42.0707 10.1221 42.0707 10.1221 42.0707 10.1221C42.0708 10.1221 42.0708 10.1221 42.0708 10.1221C42.0708 10.122 42.0708 10.122 42.0708 10.122C42.0708 10.122 42.0708 10.122 42.0709 10.122C42.0709 10.122 42.0709 10.122 42.0709 10.1219C42.0709 10.1219 42.0709 10.1219 42.0709 10.1219C42.071 10.1219 42.071 10.1219 42.071 10.1219C42.071 10.1218 42.071 10.1218 42.071 10.1218C42.071 10.1218 42.071 10.1218 42.0711 10.1218C42.0711 10.1218 42.0711 10.1218 42.0711 10.1217C42.0711 10.1217 42.0711 10.1217 42.0711 10.1217C42.0711 10.1217 42.0712 10.1217 42.0712 10.1217C42.0712 10.1217 42.0712 10.1216 42.0712 10.1216C42.0712 10.1216 42.0712 10.1216 42.0712 10.1216C42.0712 10.1216 42.0713 10.1216 42.0713 10.1216C42.0713 10.1216 42.0713 10.1215 42.0713 10.1215C42.0713 10.1215 42.0713 10.1215 42.0713 10.1215C42.0714 10.1215 42.0714 10.1215 42.0714 10.1215C42.0714 10.1214 42.0714 10.1214 42.0714 10.1214C42.0714 10.1214 42.0714 10.1214 42.0714 10.1214C42.0715 10.1214 42.0715 10.1214 42.0715 10.1214C42.0715 10.1213 42.0715 10.1213 42.0715 10.1213C42.0715 10.1213 42.0715 10.1213 42.0715 10.1213C42.0716 10.1213 42.0716 10.1213 42.0716 10.1213C42.0716 10.1213 42.0716 10.1212 42.0716 10.1212C42.0716 10.1212 42.0716 10.1212 42.0716 10.1212C42.0717 10.1212 42.0717 10.1212 42.0717 10.1212C42.0717 10.1212 42.0717 10.1211 42.0717 10.1211C42.0717 10.1211 42.0717 10.1211 42.0717 10.1211C42.0717 10.1211 42.0718 10.1211 42.0718 10.1211C42.0718 10.1211 42.0718 10.1211 42.0718 10.121C42.0718 10.121 42.0718 10.121 42.0718 10.121C42.0718 10.121 42.0718 10.121 42.0719 10.121C42.0719 10.121 42.0719 10.121 42.0719 10.121C42.0719 10.1209 42.0719 10.1209 42.0719 10.1209C42.0719 10.1209 42.0719 10.1209 42.0719 10.1209C42.0719 10.1209 42.072 10.1209 42.072 10.1209C42.072 10.1209 42.072 10.1209 42.072 10.1208C42.072 10.1208 42.072 10.1208 42.072 10.1208C42.072 10.1208 42.072 10.1208 42.072 10.1208C42.0721 10.1208 42.0721 10.1208 42.0721 10.1208C42.0721 10.1208 42.0721 10.1207 42.0721 10.1207C42.0721 10.1207 42.0721 10.1207 42.0721 10.1207C42.0721 10.1207 42.0721 10.1207 42.0721 10.1207C42.0722 10.1207 42.0722 10.1207 42.0722 10.1207C42.0722 10.1207 42.0722 10.1206 42.0722 10.1206C42.0722 10.1206 42.0722 10.1206 42.0722 10.1206C42.0722 10.1206 42.0722 10.1206 42.0722 10.1206C42.0723 10.1206 42.0723 10.1206 42.0723 10.1206C42.0723 10.1206 42.0723 10.1206 42.0723 10.1205C42.0723 10.1205 42.0723 10.1205 42.0723 10.1205C42.0723 10.1205 42.0723 10.1205 42.0723 10.1205C42.0723 10.1205 42.0724 10.1205 42.0724 10.1205C42.0724 10.1205 42.0724 10.1205 42.0724 10.1205C42.0724 10.1205 42.0724 10.1204 42.0724 10.1204C42.0724 10.1204 42.0724 10.1204 42.0724 10.1204C42.0724 10.1204 42.0724 10.1204 42.0724 10.1204C42.0724 10.1204 42.0725 10.1204 42.0725 10.1204C42.0725 10.1204 42.0725 10.1204 42.0725 10.1204C42.0725 10.1204 42.0725 10.1203 42.0725 10.1203C42.0725 10.1203 42.0725 10.1203 42.0725 10.1203C42.0725 10.1203 42.0725 10.1203 42.0725 10.1203C42.0725 10.1203 42.0726 10.1203 42.0726 10.1203C42.0726 10.1203 42.0726 10.1203 42.0726 10.1203C42.0726 10.1203 42.0726 10.1203 42.0726 10.1202C42.0726 10.1202 42.0726 10.1202 42.0726 10.1202C42.0726 10.1202 42.0726 10.1202 42.0726 10.1202C42.0726 10.1202 42.0726 10.1202 42.0726 10.1202C42.0726 10.1202 42.0727 10.1202 42.0727 10.1202C42.0727 10.1202 42.0727 10.1202 42.0727 10.1202C42.0727 10.1202 42.0727 10.1202 42.0727 10.1202C42.0727 10.1201 42.0727 10.1201 42.0727 10.1201C42.0727 10.1201 42.0727 10.1201 42.0727 10.1201C42.0727 10.1201 42.0727 10.1201 42.0727 10.1201C42.0727 10.1201 42.0727 10.1201 42.0727 10.1201C42.0727 10.1201 42.0728 10.1201 42.0728 10.1201C42.0728 10.1201 42.0728 10.1201 42.0728 10.1201C42.0728 10.1201 42.0728 10.1201 42.0728 10.1201C42.0728 10.1201 42.0728 10.12 42.0728 10.12C42.0728 10.12 42.0728 10.12 42.0728 10.12C42.0728 10.12 42.0728 10.12 42.0728 10.12C42.0728 10.12 42.0728 10.12 42.0728 10.12C42.0728 10.12 42.0728 10.12 42.0728 10.12C42.0728 10.12 42.0728 10.12 42.0729 10.12C42.0729 10.12 42.0729 10.12 42.0729 10.12C42.0729 10.12 42.0729 10.12 42.0729 10.12C42.0729 10.12 42.0729 10.12 42.0729 10.12C42.0729 10.12 42.0729 10.12 42.0729 10.1199C42.0729 10.1199 42.0729 10.1199 42.0729 10.1199C42.0729 10.1199 42.0729 10.1199 42.0729 10.1199C42.0729 10.1199 42.0729 10.1199 42.0729 10.1199C42.0729 10.1199 42.0729 10.1199 42.0729 10.1199C42.0729 10.1199 42.0729 10.1199 42.0729 10.1199C42.0729 10.1199 42.0729 10.1199 42.0729 10.1199C42.0729 10.1199 42.0729 10.1199 42.0729 10.1199C42.0729 10.1199 42.0729 10.1199 42.0729 10.1199C42.073 10.1199 42.073 10.1199 42.073 10.1199C42.073 10.1199 42.073 10.1199 42.073 10.1199C42.073 10.1199 42.073 10.1199 42.073 10.1199C42.073 10.1199 42.073 10.1199 42.073 10.1199C42.073 10.1199 42.073 10.1199 42.073 10.1199C42.073 10.1199 42.073 10.1199 42.073 10.1199C42.073 10.1199 42.073 10.1199 42.073 10.1199C42.073 10.1199 42.073 10.1199 42.073 10.1199C42.073 10.1199 42.073 10.1199 42.073 10.1199C42.073 10.1199 42.073 10.1199 42.073 10.1198C42.073 10.1198 42.073 10.1198 42.073 10.1198C42.073 10.1198 42.073 10.1198 42.073 10.1198C42.073 10.1198 42.073 10.1198 42.073 10.1198C42.073 10.1198 42.073 10.1198 42.073 10.1198C42.073 10.1198 42.073 10.1198 42.073 10.1198C42.073 10.1198 42.073 10.1198 41.3659 9.41274C40.6588 8.70563 40.6588 8.70563 40.6588 8.70563C40.6588 8.70563 40.6588 8.70563 40.6588 8.70563C40.6588 8.70563 40.6588 8.70563 40.6588 8.70563C40.6588 8.70563 40.6588 8.70563 40.6588 8.70563C40.6588 8.70563 40.6588 8.70563 40.6588 8.70563C40.6588 8.70563 40.6588 8.70563 40.6588 8.70563C40.6588 8.70564 40.6588 8.70564 40.6588 8.70564C40.6588 8.70564 40.6588 8.70564 40.6588 8.70564C40.6588 8.70564 40.6588 8.70564 40.6588 8.70564C40.6588 8.70564 40.6588 8.70564 40.6588 8.70565C40.6588 8.70565 40.6588 8.70565 40.6588 8.70565C40.6588 8.70565 40.6588 8.70565 40.6588 8.70565C40.6588 8.70566 40.6588 8.70566 40.6588 8.70566C40.6588 8.70566 40.6587 8.70566 40.6587 8.70566C40.6587 8.70567 40.6587 8.70567 40.6587 8.70567C40.6587 8.70567 40.6587 8.70567 40.6587 8.70567C40.6587 8.70568 40.6587 8.70568 40.6587 8.70568C40.6587 8.70568 40.6587 8.70569 40.6587 8.70569C40.6587 8.70569 40.6587 8.70569 40.6587 8.70569C40.6587 8.7057 40.6587 8.7057 40.6587 8.7057C40.6587 8.7057 40.6587 8.70571 40.6587 8.70571C40.6587 8.70571 40.6587 8.70571 40.6587 8.70572C40.6587 8.70572 40.6587 8.70572 40.6587 8.70572C40.6587 8.70573 40.6587 8.70573 40.6587 8.70573C40.6587 8.70574 40.6587 8.70574 40.6587 8.70574C40.6587 8.70575 40.6587 8.70575 40.6587 8.70575C40.6587 8.70575 40.6587 8.70576 40.6587 8.70576C40.6586 8.70576 40.6586 8.70577 40.6586 8.70577C40.6586 8.70577 40.6586 8.70578 40.6586 8.70578C40.6586 8.70579 40.6586 8.70579 40.6586 8.70579C40.6586 8.7058 40.6586 8.7058 40.6586 8.7058C40.6586 8.70581 40.6586 8.70581 40.6586 8.70582C40.6586 8.70582 40.6586 8.70582 40.6586 8.70583C40.6586 8.70583 40.6586 8.70584 40.6586 8.70584C40.6586 8.70584 40.6586 8.70585 40.6586 8.70585C40.6586 8.70586 40.6586 8.70586 40.6585 8.70587C40.6585 8.70587 40.6585 8.70587 40.6585 8.70588C40.6585 8.70588 40.6585 8.70589 40.6585 8.70589C40.6585 8.7059 40.6585 8.7059 40.6585 8.70591C40.6585 8.70591 40.6585 8.70592 40.6585 8.70592C40.6585 8.70593 40.6585 8.70593 40.6585 8.70594C40.6585 8.70594 40.6585 8.70595 40.6585 8.70595C40.6585 8.70596 40.6585 8.70596 40.6584 8.70597C40.6584 8.70597 40.6584 8.70598 40.6584 8.70598C40.6584 8.70599 40.6584 8.70599 40.6584 8.706C40.6584 8.706 40.6584 8.70601 40.6584 8.70602C40.6584 8.70602 40.6584 8.70603 40.6584 8.70603C40.6584 8.70604 40.6584 8.70604 40.6584 8.70605C40.6584 8.70606 40.6584 8.70606 40.6583 8.70607C40.6583 8.70607 40.6583 8.70608 40.6583 8.70609C40.6583 8.70609 40.6583 8.7061 40.6583 8.7061C40.6583 8.70611 40.6583 8.70612 40.6583 8.70612C40.6583 8.70613 40.6583 8.70614 40.6583 8.70614C40.6583 8.70615 40.6583 8.70616 40.6582 8.70616C40.6582 8.70617 40.6582 8.70618 40.6582 8.70618C40.6582 8.70619 40.6582 8.7062 40.6582 8.7062C40.6582 8.70621 40.6582 8.70622 40.6582 8.70622C40.6582 8.70623 40.6582 8.70624 40.6582 8.70624C40.6582 8.70625 40.6582 8.70626 40.6581 8.70627C40.6581 8.70627 40.6581 8.70628 40.6581 8.70629C40.6581 8.70629 40.6581 8.7063 40.6581 8.70631C40.6581 8.70632 40.6581 8.70632 40.6581 8.70633C40.6581 8.70634 40.6581 8.70635 40.6581 8.70635C40.658 8.70636 40.658 8.70637 40.658 8.70638C40.658 8.70639 40.658 8.70639 40.658 8.7064C40.658 8.70641 40.658 8.70642 40.658 8.70643C40.658 8.70643 40.658 8.70644 40.658 8.70645C40.658 8.70646 40.6579 8.70647 40.6579 8.70647C40.6579 8.70648 40.6579 8.70649 40.6579 8.7065C40.6579 8.70651 40.6579 8.70652 40.6579 8.70653C40.6579 8.70653 40.6579 8.70654 40.6579 8.70655C40.6579 8.70656 40.6578 8.70657 40.6578 8.70658C40.6578 8.70659 40.6578 8.70659 40.6578 8.7066C40.6578 8.70661 40.6578 8.70662 40.6578 8.70663C40.6578 8.70664 40.6578 8.70665 40.6578 8.70666C40.6577 8.70667 40.6577 8.70668 40.6577 8.70669C40.6577 8.70669 40.6577 8.7067 40.6577 8.70671C40.6577 8.70672 40.6577 8.70673 40.6577 8.70674C40.6577 8.70675 40.6577 8.70676 40.6576 8.70677C40.6576 8.70678 40.6576 8.70679 40.6576 8.7068C40.6576 8.70681 40.6576 8.70682 40.6576 8.70683C40.6576 8.70684 40.6576 8.70685 40.6576 8.70686C40.6575 8.70687 40.6575 8.70688 40.6575 8.70689C40.6575 8.7069 40.6575 8.70691 40.6575 8.70692C40.6575 8.70693 40.6575 8.70694 40.6575 8.70695C40.6575 8.70696 40.6574 8.70697 40.6574 8.70698C40.6574 8.70699 40.6574 8.707 40.6574 8.70701C40.6574 8.70702 40.6574 8.70704 40.6574 8.70705C40.6574 8.70706 40.6573 8.70707 40.6573 8.70708C40.6573 8.70709 40.6573 8.7071 40.6573 8.70711C40.6573 8.70712 40.6573 8.70713 40.6573 8.70714C40.6573 8.70716 40.6572 8.70717 40.6572 8.70718C40.6572 8.70719 40.6572 8.7072 40.6572 8.70721C40.6572 8.70722 40.6572 8.70723 40.6572 8.70725C40.6572 8.70726 40.6571 8.70727 40.6571 8.70728C40.6571 8.70729 40.6571 8.7073 40.6571 8.70732C40.6571 8.70733 40.6571 8.70734 40.6571 8.70735C40.657 8.70736 40.657 8.70737 40.657 8.70739C40.657 8.7074 40.657 8.70741 40.657 8.70742C40.657 8.70743 40.657 8.70745 40.657 8.70746C40.6569 8.70747 40.6569 8.70748 40.6569 8.7075C40.6569 8.70751 40.6569 8.70752 40.6569 8.70753C40.6569 8.70755 40.6569 8.70756 40.6568 8.70757C40.6568 8.70758 40.6568 8.7076 40.6568 8.70761C40.6568 8.70762 40.6568 8.70763 40.6568 8.70765C40.6568 8.70766 40.6567 8.70767 40.6567 8.70769C40.6567 8.7077 40.6567 8.70771 40.6567 8.70772C40.6567 8.70774 40.6567 8.70775 40.6566 8.70776C40.6566 8.70778 40.6566 8.70779 40.6566 8.7078C40.6566 8.70782 40.6566 8.70783 40.6566 8.70784C40.6566 8.70786 40.6565 8.70787 40.6565 8.70788C40.6565 8.7079 40.6565 8.70791 40.6565 8.70792C40.6565 8.70794 40.6565 8.70795 40.6564 8.70797C40.6564 8.70798 40.6564 8.70799 40.6564 8.70801C40.6564 8.70802 40.6564 8.70804 40.6564 8.70805C40.6563 8.70806 40.6563 8.70808 40.6563 8.70809C40.6563 8.70811 40.6563 8.70812 40.6563 8.70813C40.6563 8.70815 40.6562 8.70816 40.6562 8.70818C40.6562 8.70819 40.6562 8.70821 40.6562 8.70822C40.6562 8.70824 40.6562 8.70825 40.6561 8.70826C40.6561 8.70828 40.6561 8.70829 40.6561 8.70831C40.6561 8.70832 40.6561 8.70834 40.6561 8.70835C40.656 8.70837 40.656 8.70838 40.656 8.7084C40.656 8.70841 40.656 8.70843 40.656 8.70844C40.656 8.70846 40.6559 8.70847 40.6559 8.70849C40.6559 8.7085 40.6559 8.70852 40.6559 8.70853C40.6559 8.70855 40.6558 8.70857 40.6558 8.70858C40.6558 8.7086 40.6558 8.70861 40.6558 8.70863C40.6558 8.70864 40.6558 8.70866 40.6557 8.70867C40.6557 8.70869 40.6557 8.70871 40.6557 8.70872C40.6557 8.70874 40.6557 8.70875 40.6556 8.70877C40.6556 8.70879 40.6556 8.7088 40.6556 8.70882C40.6556 8.70883 40.6556 8.70885 40.6555 8.70887C40.6555 8.70888 40.6555 8.7089 40.6555 8.70892C40.6555 8.70893 40.6555 8.70895 40.6554 8.70897C40.6554 8.70898 40.6554 8.709 40.6554 8.70901C40.6554 8.70903 40.6554 8.70905 40.6553 8.70906C40.6553 8.70908 40.6553 8.7091 40.6553 8.70911C40.6553 8.70913 40.6553 8.70915 40.6552 8.70917C40.6552 8.70918 40.6552 8.7092 40.6552 8.70922C40.6552 8.70923 40.6552 8.70925 40.6551 8.70927C40.6551 8.70929 40.6551 8.7093 40.6551 8.70932C40.6551 8.70934 40.6551 8.70935 40.655 8.70937C40.655 8.70939 40.655 8.70941 40.655 8.70942C40.655 8.70944 40.655 8.70946 40.6549 8.70948C40.6549 8.7095 40.6549 8.70951 40.6549 8.70953C40.6549 8.70955 40.6548 8.70957 40.6548 8.70958C40.6548 8.7096 40.6548 8.70962 40.6548 8.70964C40.6548 8.70966 40.6547 8.70967 40.6547 8.70969C40.6547 8.70971 40.6547 8.70973 40.6547 8.70975C40.6546 8.70977 40.6546 8.70978 40.6546 8.7098C40.6546 8.70982 40.6546 8.70984 40.6546 8.70986C40.6545 8.70988 40.6545 8.7099 40.6545 8.70991C40.6545 8.70993 40.6545 8.70995 40.6544 8.70997C40.6544 8.70999 40.6544 8.71001 40.6544 8.71003C40.6544 8.71005 40.6543 8.71006 40.6543 8.71008C40.6543 8.7101 40.6543 8.71012 40.6543 8.71014C40.6543 8.71016 40.6542 8.71018 40.6542 8.7102C40.6542 8.71022 40.6542 8.71024 40.6542 8.71026C40.6541 8.71028 40.6541 8.7103 40.6541 8.71032C40.6541 8.71033 40.6541 8.71035 40.654 8.71037C40.654 8.71039 40.654 8.71041 40.654 8.71043C40.654 8.71045 40.6539 8.71047 40.6539 8.71049C40.6539 8.71051 40.6539 8.71053 40.6539 8.71055C40.6538 8.71057 40.6538 8.71059 40.6538 8.71061C40.6538 8.71063 40.6538 8.71065 40.6537 8.71067C40.6537 8.71069 40.6537 8.71071 40.6537 8.71073C40.6537 8.71075 40.6536 8.71078 40.6536 8.7108C40.6536 8.71082 40.6536 8.71084 40.6536 8.71086C40.6535 8.71088 40.6535 8.7109 40.6535 8.71092C40.6535 8.71094 40.6535 8.71096 40.6534 8.71098C40.6534 8.711 40.6534 8.71102 40.6534 8.71104C40.6533 8.71107 40.6533 8.71109 40.6533 8.71111C40.6533 8.71113 40.6533 8.71115 40.6532 8.71117C40.6532 8.71119 40.6532 8.71121 40.6532 8.71124C40.6532 8.71126 40.6531 8.71128 40.6531 8.7113C40.6531 8.71132 40.6531 8.71134 40.653 8.71136C40.653 8.71139 40.653 8.71141 40.653 8.71143C40.653 8.71145 40.6529 8.71147 40.6529 8.71149C40.6529 8.71152 40.6529 8.71154 40.6529 8.71156C40.6528 8.71158 40.6528 8.7116 40.6528 8.71163C40.6528 8.71165 40.6527 8.71167 40.6527 8.71169C40.6527 8.71172 40.6527 8.71174 40.6527 8.71176C40.6526 8.71178 40.6526 8.7118 40.6526 8.71183C40.6526 8.71185 40.6525 8.71187 40.6525 8.71189C40.6525 8.71192 40.6525 8.71194 40.6524 8.71196C40.6524 8.71199 40.6524 8.71201 40.6524 8.71203C40.6524 8.71205 40.6523 8.71208 40.6523 8.7121C40.6523 8.71212 40.6523 8.71215 40.6522 8.71217C40.6522 8.71219 40.6522 8.71221 40.6522 8.71224C40.6522 8.71226 40.6521 8.71228 40.6521 8.71231C40.6521 8.71233 40.6521 8.71235 40.652 8.71238C40.652 8.7124 40.652 8.71242 40.652 8.71245C40.6519 8.71247 40.6519 8.7125 40.6519 8.71252C40.6519 8.71254 40.6518 8.71257 40.6518 8.71259C40.6518 8.71261 40.6518 8.71264 40.6517 8.71266C40.6517 8.71269 40.6517 8.71271 40.6517 8.71273C40.6517 8.71276 40.6516 8.71278 40.6516 8.71281C40.6516 8.71283 40.6516 8.71285 40.6515 8.71288C40.6515 8.7129 40.6515 8.71293 40.6515 8.71295C40.6514 8.71298 40.6514 8.713 40.6514 8.71303C40.6514 8.71305 40.6513 8.71307 40.6513 8.7131C40.6513 8.71312 40.6513 8.71315 40.6512 8.71317C40.6512 8.7132 40.6512 8.71322 40.6512 8.71325C40.6511 8.71327 40.6511 8.7133 40.6511 8.71332C40.6511 8.71335 40.651 8.71337 40.651 8.7134C40.651 8.71342 40.651 8.71345 40.6509 8.71347C40.6509 8.7135 40.6509 8.71352 40.6509 8.71355C40.6508 8.71358 40.6508 8.7136 40.6508 8.71363C40.6508 8.71365 40.6507 8.71368 40.6507 8.7137C40.6507 8.71373 40.6507 8.71375 40.6506 8.71378C40.6506 8.71381 40.6506 8.71383 40.6506 8.71386C40.6505 8.71388 40.6505 8.71391 40.6505 8.71394C40.6505 8.71396 40.6504 8.71399 40.6504 8.71401C40.6504 8.71404 40.6503 8.71407 40.6503 8.71409C40.6503 8.71412 40.6503 8.71414 40.6502 8.71417C40.6502 8.7142 40.6502 8.71422 40.6502 8.71425C40.6501 8.71428 40.6501 8.7143 40.6501 8.71433C40.6501 8.71436 40.65 8.71438 40.65 8.71441C40.65 8.71444 40.6499 8.71446 40.6499 8.71449C40.6499 8.71452 40.6499 8.71454 40.6498 8.71457C40.6498 8.7146 40.6498 8.71462 40.6498 8.71465C40.6497 8.71468 40.6497 8.71471 40.6497 8.71473C40.6497 8.71476 40.6496 8.71479 40.6496 8.71482C40.6496 8.71484 40.6495 8.71487 40.6495 8.7149C40.6495 8.71493 40.6495 8.71495 40.6494 8.71498C40.6494 8.71501 40.6494 8.71504 40.6493 8.71506C40.6493 8.71509 40.6493 8.71512 40.6493 8.71515C40.6492 8.71517 40.6492 8.7152 40.6492 8.71523C40.6492 8.71526 40.6491 8.71529 40.6491 8.71531C40.6491 8.71534 40.649 8.71537 40.649 8.7154C40.649 8.71543 40.649 8.71546 40.6489 8.71548C40.6489 8.71551 40.6489 8.71554 40.6488 8.71557C40.6488 8.7156 40.6488 8.71563 40.6488 8.71565C40.6487 8.71568 40.6487 8.71571 40.6487 8.71574C40.6486 8.71577 40.6486 8.7158 40.6486 8.71583C40.6486 8.71585 40.6485 8.71588 40.6485 8.71591C40.6485 8.71594 40.6484 8.71597 40.6484 8.716C40.6484 8.71603 40.6484 8.71606 40.6483 8.71609C40.6483 8.71612 40.6483 8.71615 40.6482 8.71617C40.6482 8.7162 40.6482 8.71623 40.6481 8.71626C40.6481 8.71629 40.6481 8.71632 40.6481 8.71635C40.648 8.71638 40.648 8.71641 40.648 8.71644C40.6479 8.71647 40.6479 8.7165 40.6479 8.71653C40.6479 8.71656 40.6478 8.71659 40.6478 8.71662C40.6478 8.71665 40.6477 8.71668 40.6477 8.71671C40.6477 8.71674 40.6476 8.71677 40.6476 8.7168C40.6476 8.71683 40.6476 8.71686 40.6475 8.71689C40.6475 8.71692 40.6475 8.71695 40.6474 8.71698C40.6474 8.71701 40.6474 8.71704 40.6473 8.71707C40.6473 8.7171 40.6473 8.71713 40.6472 8.71716C40.6472 8.71719 40.6472 8.71723 40.6472 8.71726C40.6471 8.71729 40.6471 8.71732 40.6471 8.71735C40.647 8.71738 40.647 8.71741 40.647 8.71744C40.6469 8.71747 40.6469 8.7175 40.6469 8.71753C40.6468 8.71757 40.6468 8.7176 40.6468 8.71763C40.6468 8.71766 40.6467 8.71769 40.6467 8.71772C40.6467 8.71775 40.6466 8.71778 40.6466 8.71782C40.6466 8.71785 40.6465 8.71788 40.6465 8.71791C40.6465 8.71794 40.6464 8.71797 40.6464 8.71801C40.6464 8.71804 40.6463 8.71807 40.6463 8.7181C40.6463 8.71813 40.6462 8.71817 40.6462 8.7182C40.6462 8.71823 40.6462 8.71826 40.6461 8.71829C40.6461 8.71833 40.6461 8.71836 40.646 8.71839C40.646 8.71842 40.646 8.71845 40.6459 8.71849C40.6459 8.71852 40.6459 8.71855 40.6458 8.71858C40.6458 8.71862 40.6458 8.71865 40.6457 8.71868C40.6457 8.71871 40.6457 8.71875 40.6456 8.71878C40.6456 8.71881 40.6456 8.71884 40.6455 8.71888C40.6455 8.71891 40.6455 8.71894 40.6454 8.71898C40.6454 8.71901 40.6454 8.71904 40.6453 8.71908C40.6453 8.71911 40.6453 8.71914 40.6452 8.71917C40.6452 8.71921 40.6452 8.71924 40.6451 8.71927C40.6451 8.71931 40.6451 8.71934 40.645 8.71937C40.645 8.71941 40.645 8.71944 40.6449 8.71948C40.6449 8.71951 40.6449 8.71954 40.6448 8.71958C40.6448 8.71961 40.6448 8.71964 40.6447 8.71968C40.6447 8.71971 40.6447 8.71975 40.6446 8.71978C40.6446 8.71981 40.6446 8.71985 40.6445 8.71988C40.6445 8.71992 40.6445 8.71995 40.6444 8.71998C40.6444 8.72002 40.6444 8.72005 40.6443 8.72009C40.6443 8.72012 40.6443 8.72015 40.6442 8.72019C40.6442 8.72022 40.6442 8.72026 40.6441 8.72029C40.6441 8.72033 40.644 8.72036 40.644 8.7204C40.644 8.72043 40.6439 8.72047 40.6439 8.7205C40.6439 8.72054 40.6438 8.72057 40.6438 8.72061C40.6438 8.72064 40.6437 8.72068 40.6437 8.72071C40.6437 8.72075 40.6436 8.72078 40.6436 8.72082C40.6436 8.72085 40.6435 8.72089 40.6435 8.72092C40.6435 8.72096 40.6434 8.72099 40.6434 8.72103C40.6433 8.72106 40.6433 8.7211 40.6433 8.72113C40.6432 8.72117 40.6432 8.7212 40.6432 8.72124C40.6431 8.72128 40.6431 8.72131 40.6431 8.72135C40.643 8.72138 40.643 8.72142 40.643 8.72145C40.6429 8.72149 40.6429 8.72153 40.6428 8.72156C40.6428 8.7216 40.6428 8.72163 40.6427 8.72167C40.6427 8.72171 40.6427 8.72174 40.6426 8.72178C40.6426 8.72182 40.6426 8.72185 40.6425 8.72189C40.6425 8.72192 40.6425 8.72196 40.6424 8.722C40.6424 8.72203 40.6423 8.72207 40.6423 8.72211C40.6423 8.72214 40.6422 8.72218 40.6422 8.72222C40.6422 8.72225 40.6421 8.72229 40.6421 8.72233C40.642 8.72236 40.642 8.7224 40.642 8.72244C40.6419 8.72248 40.6419 8.72251 40.6419 8.72255C40.6418 8.72259 40.6418 8.72262 40.6418 8.72266C40.6417 8.7227 40.6417 8.72274 40.6416 8.72277C40.6416 8.72281 40.6416 8.72285 40.6415 8.72289C40.6415 8.72292 40.6415 8.72296 40.6414 8.723C40.6414 8.72304 40.6413 8.72307 40.6413 8.72311C40.6413 8.72315 40.6412 8.72319 40.6412 8.72322C40.6411 8.72326 40.6411 8.7233 40.6411 8.72334C40.641 8.72338 40.641 8.72341 40.641 8.72345C40.6409 8.72349 40.6409 8.72353 40.6408 8.72357C40.6408 8.7236 40.6408 8.72364 40.6407 8.72368C40.6407 8.72372 40.6407 8.72376 40.6406 8.7238C40.6406 8.72383 40.6405 8.72387 40.6405 8.72391C40.6405 8.72395 40.6404 8.72399 40.6404 8.72403C40.6403 8.72407 40.6403 8.72411 40.6403 8.72414C40.6402 8.72418 40.6402 8.72422 40.6402 8.72426C40.6401 8.7243 40.6401 8.72434 40.64 8.72438C40.64 8.72442 40.64 8.72446 40.6399 8.7245C40.6399 8.72453 40.6398 8.72457 40.6398 8.72461C40.6398 8.72465 40.6397 8.72469 40.6397 8.72473C40.6396 8.72477 40.6396 8.72481 40.6396 8.72485C40.6395 8.72489 40.6395 8.72493 40.6394 8.72497C40.6394 8.72501 40.6394 8.72505 40.6393 8.72509C40.6393 8.72513 40.6392 8.72517 40.6392 8.72521C40.6392 8.72525 40.6391 8.72529 40.6391 8.72533C40.639 8.72537 40.639 8.72541 40.639 8.72545C40.6389 8.72549 40.6389 8.72553 40.6388 8.72557C40.6388 8.72561 40.6388 8.72565 40.6387 8.72569C40.6387 8.72573 40.6386 8.72577 40.6386 8.72581C40.6386 8.72585 40.6385 8.72589 40.6385 8.72593C40.6384 8.72597 40.6384 8.72601 40.6384 8.72605C40.6383 8.7261 40.6383 8.72614 40.6382 8.72618C40.6382 8.72622 40.6382 8.72626 40.6381 8.7263C40.6381 8.72634 40.638 8.72638 40.638 8.72642C40.6379 8.72646 40.6379 8.72651 40.6379 8.72655C40.6378 8.72659 40.6378 8.72663 40.6377 8.72667C40.6377 8.72671 40.6377 8.72675 40.6376 8.72679C40.6376 8.72684 40.6375 8.72688 40.6375 8.72692C40.6375 8.72696 40.6374 8.727 40.6374 8.72704C40.6373 8.72709 40.6373 8.72713 40.6372 8.72717C40.6372 8.72721 40.6372 8.72725 40.6371 8.7273C40.6371 8.72734 40.637 8.72738 40.637 8.72742C40.6369 8.72746 40.6369 8.72751 40.6369 8.72755C40.6368 8.72759 40.6368 8.72763 40.6367 8.72768C40.6367 8.72772 40.6367 8.72776 40.6366 8.7278C40.6366 8.72785 40.6365 8.72789 40.6365 8.72793C40.6364 8.72797 40.6364 8.72802 40.6364 8.72806C40.6363 8.7281 40.6363 8.72814 40.6362 8.72819C40.6362 8.72823 40.6361 8.72827 40.6361 8.72832C40.6361 8.72836 40.636 8.7284 40.636 8.72844C40.6359 8.72849 40.6359 8.72853 40.6358 8.72857C40.6358 8.72862 40.6358 8.72866 40.6357 8.7287C40.6357 8.72875 40.6356 8.72879 40.6356 8.72883C40.6355 8.72888 40.6355 8.72892 40.6354 8.72896C40.6354 8.72901 40.6354 8.72905 40.6353 8.7291C40.6353 8.72914 40.6352 8.72918 40.6352 8.72923C40.6351 8.72927 40.6351 8.72931 40.6351 8.72936C40.635 8.7294 40.635 8.72945 40.6349 8.72949C40.6349 8.72953 40.6348 8.72958 40.6348 8.72962C40.6347 8.72967 40.6347 8.72971 40.6347 8.72976C40.6346 8.7298 40.6346 8.72984 40.6345 8.72989C40.6345 8.72993 40.6344 8.72998 40.6344 8.73002C40.6343 8.73007 40.6343 8.73011 40.6343 8.73016C40.6342 8.7302 40.6342 8.73025 40.6341 8.73029C40.6341 8.73033 40.634 8.73038 40.634 8.73042C40.6339 8.73047 40.6339 8.73051 40.6339 8.73056C40.6338 8.7306 40.6338 8.73065 40.6337 8.7307C40.6337 8.73074 40.6336 8.73079 40.6336 8.73083C40.6335 8.73088 40.6335 8.73092 40.6334 8.73097C40.6334 8.73101 40.6334 8.73106 40.6333 8.7311C40.6333 8.73115 40.6332 8.73119 40.6332 8.73124C40.6331 8.73129 40.6331 8.73133 40.633 8.73138C40.633 8.73142 40.6329 8.73147 40.6329 8.73151C40.6329 8.73156 40.6328 8.73161 40.6328 8.73165C40.6327 8.7317 40.6327 8.73174 40.6326 8.73179C40.6326 8.73184 40.6325 8.73188 40.6325 8.73193C40.6324 8.73198 40.6324 8.73202 40.6323 8.73207C40.6323 8.73211 40.6323 8.73216 40.6322 8.73221C40.6322 8.73225 40.6321 8.7323 40.6321 8.73235C40.632 8.73239 40.632 8.73244 40.6319 8.73249C40.6319 8.73253 40.6318 8.73258 40.6318 8.73263C40.6317 8.73267 40.6317 8.73272 40.6316 8.73277C40.6316 8.73282 40.6315 8.73286 40.6315 8.73291C40.6315 8.73296 40.6314 8.733 40.6314 8.73305C40.6313 8.7331 40.6313 8.73315 40.6312 8.73319C40.6312 8.73324 40.6311 8.73329 40.6311 8.73334C40.631 8.73338 40.631 8.73343 40.6309 8.73348C40.6309 8.73353 40.6308 8.73357 40.6308 8.73362C40.6307 8.73367 40.6307 8.73372 40.6306 8.73376C40.6306 8.73381 40.6306 8.73386 40.6305 8.73391C40.6305 8.73396 40.6304 8.734 40.6304 8.73405C40.6303 8.7341 40.6303 8.73415 40.6302 8.7342C40.6302 8.73425 40.6301 8.73429 40.6301 8.73434C40.63 8.73439 40.63 8.73444 40.6299 8.73449C40.6299 8.73454 40.6298 8.73458 40.6298 8.73463C40.6297 8.73468 40.6297 8.73473 40.6296 8.73478C40.6296 8.73483 40.6295 8.73488 40.6295 8.73492C40.6294 8.73497 40.6294 8.73502 40.6293 8.73507C40.6293 8.73512 40.6292 8.73517 40.6292 8.73522C40.6291 8.73527 40.6291 8.73532 40.629 8.73537C40.629 8.73542 40.6289 8.73546 40.6289 8.73551C40.6288 8.73556 40.6288 8.73561 40.6287 8.73566C40.6287 8.73571 40.6287 8.73576 40.6286 8.73581C40.6286 8.73586 40.6285 8.73591 40.6285 8.73596C40.6284 8.73601 40.6284 8.73606 40.6283 8.73611C40.6283 8.73616 40.6282 8.73621 40.6282 8.73626C40.6281 8.73631 40.6281 8.73636 40.628 8.73641C40.628 8.73646 40.6279 8.73651 40.6279 8.73656C40.6278 8.73661 40.6278 8.73666 40.6277 8.73671C40.6277 8.73676 40.6276 8.73681 40.6276 8.73686C40.6275 8.73691 40.6275 8.73696 40.6274 8.73701C40.6273 8.73706 40.6273 8.73711 40.6272 8.73716C40.6272 8.73721 40.6271 8.73726 40.6271 8.73732C40.627 8.73737 40.627 8.73742 40.6269 8.73747C40.6269 8.73752 40.6268 8.73757 40.6268 8.73762C40.6267 8.73767 40.6267 8.73772 40.6266 8.73777C40.6266 8.73783 40.6265 8.73788 40.6265 8.73793C40.6264 8.73798 40.6264 8.73803 40.6263 8.73808C40.6263 8.73813 40.6262 8.73818 40.6262 8.73824C40.6261 8.73829 40.6261 8.73834 40.626 8.73839C40.626 8.73844 40.6259 8.73849 40.6259 8.73855C40.6258 8.7386 40.6258 8.73865 40.6257 8.7387C40.6257 8.73875 40.6256 8.73881 40.6256 8.73886C40.6255 8.73891 40.6255 8.73896 40.6254 8.73901C40.6253 8.73907 40.6253 8.73912 40.6252 8.73917C40.6252 8.73922 40.6251 8.73927 40.6251 8.73933C40.625 8.73938 40.625 8.73943 40.6249 8.73948C40.6249 8.73954 40.6248 8.73959 40.6248 8.73964C40.6247 8.73969 40.6247 8.73975 40.6246 8.7398C40.6246 8.73985 40.6245 8.73991 40.6245 8.73996C40.6244 8.74001 40.6243 8.74006 40.6243 8.74012C40.6242 8.74017 40.6242 8.74022 40.6241 8.74028C40.6241 8.74033 40.624 8.74038 40.624 8.74044C40.6239 8.74049 40.6239 8.74054 40.6238 8.7406C40.6238 8.74065 40.6237 8.7407 40.6237 8.74076C40.6236 8.74081 40.6235 8.74086 40.6235 8.74092C40.6234 8.74097 40.6234 8.74102 40.6233 8.74108C40.6233 8.74113 40.6232 8.74118 40.6232 8.74124C40.6231 8.74129 40.6231 8.74135 40.623 8.7414C40.623 8.74145 40.6229 8.74151 40.6228 8.74156C40.6228 8.74162 40.6227 8.74167 40.6227 8.74172C40.6226 8.74178 40.6226 8.74183 40.6225 8.74189C40.6225 8.74194 40.6224 8.742 40.6224 8.74205C40.6223 8.7421 40.6223 8.74216 40.6222 8.74221C40.6221 8.74227 40.6221 8.74232 40.622 8.74238C40.622 8.74243 40.6219 8.74249 40.6219 8.74254C40.6218 8.7426 40.6218 8.74265 40.6217 8.74271C40.6216 8.74276 40.6216 8.74282 40.6215 8.74287C40.6215 8.74293 40.6214 8.74298 40.6214 8.74304C40.6213 8.74309 40.6213 8.74315 40.6212 8.7432C40.6212 8.74326 40.6211 8.74331 40.621 8.74337C40.621 8.74342 40.6209 8.74348 40.6209 8.74354C40.6208 8.74359 40.6208 8.74365 40.6207 8.7437C40.6207 8.74376 40.6206 8.74381 40.6205 8.74387C40.6205 8.74393 40.6204 8.74398 40.6204 8.74404C40.6203 8.74409 40.6203 8.74415 40.6202 8.7442C40.6202 8.74426 40.6201 8.74432 40.62 8.74437C40.62 8.74443 40.6199 8.74449 40.6199 8.74454C40.6198 8.7446 40.6198 8.74465 40.6197 8.74471C40.6196 8.74477 40.6196 8.74482 40.6195 8.74488C40.6195 8.74494 40.6194 8.74499 40.6194 8.74505C40.6193 8.74511 40.6192 8.74516 40.6192 8.74522C40.6191 8.74528 40.6191 8.74533 40.619 8.74539C40.619 8.74545 40.6189 8.7455 40.6189 8.74556C40.6188 8.74562 40.6187 8.74568 40.6187 8.74573C40.6186 8.74579 40.6186 8.74585 40.6185 8.7459C40.6185 8.74596 40.6184 8.74602 40.6183 8.74608C40.6183 8.74613 40.6182 8.74619 40.6182 8.74625C40.6181 8.74631 40.618 8.74636 40.618 8.74642C40.6179 8.74648 40.6179 8.74654 40.6178 8.74659C40.6178 8.74665 40.6177 8.74671 40.6176 8.74677C40.6176 8.74683 40.6175 8.74688 40.6175 8.74694C40.6174 8.747 40.6174 8.74706 40.6173 8.74712C40.6172 8.74717 40.6172 8.74723 40.6171 8.74729C40.6171 8.74735 40.617 8.74741 40.6169 8.74746C40.6169 8.74752 40.6168 8.74758 40.6168 8.74764C40.6167 8.7477 40.6167 8.74776 40.6166 8.74782C40.6165 8.74787 40.6165 8.74793 40.6164 8.74799C40.6164 8.74805 40.6163 8.74811 40.6162 8.74817C40.6162 8.74823 40.6161 8.74829 40.6161 8.74834C40.616 8.7484 40.6159 8.74846 40.6159 8.74852C40.6158 8.74858 40.6158 8.74864 40.6157 8.7487C40.6157 8.74876 40.6156 8.74882 40.6155 8.74888C40.6155 8.74894 40.6154 8.749 40.6154 8.74905C40.6153 8.74911 40.6152 8.74917 40.6152 8.74923C40.6151 8.74929 40.6151 8.74935 40.615 8.74941C40.6149 8.74947 40.6149 8.74953 40.6148 8.74959C40.6148 8.74965 40.6147 8.74971 40.6146 8.74977C40.6146 8.74983 40.6145 8.74989 40.6145 8.74995C40.6144 8.75001 40.6143 8.75007 40.6143 8.75013C40.6142 8.75019 40.6142 8.75025 40.6141 8.75031C40.614 8.75037 40.614 8.75043 40.6139 8.75049C40.6139 8.75055 40.6138 8.75061 40.6137 8.75067C40.6137 8.75074 40.6136 8.7508 40.6136 8.75086C40.6135 8.75092 40.6134 8.75098 40.6134 8.75104C40.6133 8.7511 40.6133 8.75116 40.6132 8.75122C40.6131 8.75128 40.6131 8.75134 40.613 8.7514C40.6129 8.75147 40.6129 8.75153 40.6128 8.75159C40.6128 8.75165 40.6127 8.75171 40.6126 8.75177C40.6126 8.75183 40.6125 8.75189 40.6125 8.75196C40.6124 8.75202 40.6123 8.75208 40.6123 8.75214C40.6122 8.7522 40.6121 8.75226 40.6121 8.75232C40.612 8.75239 40.612 8.75245 40.6119 8.75251C40.6118 8.75257 40.6118 8.75263 40.6117 8.75269C40.6117 8.75276 40.6116 8.75282 40.6115 8.75288C40.6115 8.75294 40.6114 8.753 40.6113 8.75307C40.6113 8.75313 40.6112 8.75319 40.6112 8.75325C40.6111 8.75332 40.611 8.75338 40.611 8.75344C40.6109 8.7535 40.6108 8.75357 40.6108 8.75363L42.025 10.1678ZM42.3659 9.41274V7.49274H40.3659V9.41274H42.3659ZM41.3659 6.49274C40.8475 6.49274 40.3217 6.64252 39.9033 7.03772L41.2765 8.49175C41.2728 8.49523 41.2681 8.4989 41.2631 8.50188C41.2583 8.50482 41.2562 8.50533 41.2587 8.50444C41.2639 8.5026 41.2954 8.49274 41.3659 8.49274V6.49274ZM39.9142 7.02758C39.4391 7.46303 39.3019 8.05898 39.3019 8.58874H41.3019C41.3019 8.48419 41.3158 8.43876 41.3179 8.43268C41.3185 8.43085 41.3158 8.43926 41.3065 8.45372C41.297 8.46861 41.2833 8.48564 41.2656 8.50189L39.9142 7.02758ZM39.3019 8.58874C39.3019 9.00415 39.3668 9.49204 39.645 9.90105C39.97 10.3791 40.4723 10.5887 40.9819 10.5887V8.58874C40.9914 8.58874 41.0481 8.59084 41.1245 8.62831C41.2055 8.668 41.2644 8.72581 41.2988 8.77643C41.3288 8.82046 41.3275 8.83992 41.3197 8.80518C41.3118 8.77058 41.3019 8.70191 41.3019 8.58874H39.3019ZM47.357 10.4527L47.8281 9.57066L46.357 8.78495V10.4527H47.357ZM47.357 10.8287V11.8287H48.357V10.8287H47.357ZM44.749 10.8287H43.749V11.8287H44.749V10.8287ZM44.749 1.78074H45.749V1.21454L45.2635 0.923242L44.749 1.78074ZM44.269 1.49274H43.269V2.05893L43.7545 2.35023L44.269 1.49274ZM44.269 0.748736L44.1151 -0.23935L43.269 -0.107559V0.748736H44.269ZM46.837 0.348735V-0.651265H46.7596L46.6831 -0.63935L46.837 0.348735ZM47.357 0.348735H48.357V-0.651265H47.357V0.348735ZM47.357 4.65274H46.357V7.28293L48.1044 5.3171L47.357 4.65274ZM48.005 4.13274L48.4907 5.00689L48.4907 5.00689L48.005 4.13274ZM48.493 3.94074L48.244 2.97222L48.2371 2.97403L48.493 3.94074ZM51.021 4.77274L50.1946 5.33586L50.198 5.34081L51.021 4.77274ZM51.477 8.66874L52.4435 8.92564L52.4442 8.92263L51.477 8.66874ZM50.981 9.78874L50.1511 9.2309L50.1511 9.2309L50.981 9.78874ZM50.133 10.5567L50.6022 11.4399L50.6071 11.4372L50.133 10.5567ZM48.597 5.66074L47.7622 6.21133L47.769 6.22165L47.7761 6.2318L48.597 5.66074ZM47.357 5.50074L46.7778 4.68555L46.357 4.98454V5.50074H47.357ZM47.357 9.66074H46.357V10.429L47.0994 10.627L47.357 9.66074ZM47.581 9.70874L47.429 10.6971L47.4665 10.7029L47.5043 10.7058L47.581 9.70874ZM48.957 9.82874C48.5036 9.82874 48.1355 9.73481 47.8281 9.57066L46.8859 11.3348C47.5172 11.672 48.2158 11.8287 48.957 11.8287V9.82874ZM46.357 10.4527V10.8287H48.357V10.4527H46.357ZM47.357 9.82874H44.749V11.8287H47.357V9.82874ZM45.749 10.8287V1.78074H43.749V10.8287H45.749ZM45.2635 0.923242L44.7835 0.635242L43.7545 2.35023L44.2345 2.63823L45.2635 0.923242ZM45.269 1.49274V0.748736H43.269V1.49274H45.269ZM44.4229 1.73682L46.9909 1.33682L46.6831 -0.63935L44.1151 -0.23935L44.4229 1.73682ZM46.837 1.34874H47.357V-0.651265H46.837V1.34874ZM46.357 0.348735V4.65274H48.357V0.348735H46.357ZM48.1044 5.3171C48.1568 5.25816 48.2155 5.20096 48.2812 5.14565L46.9929 3.61582C46.8559 3.73118 46.7279 3.85531 46.6096 3.98837L48.1044 5.3171ZM48.2812 5.14565C48.3231 5.1103 48.3899 5.06286 48.4907 5.00689L47.5194 3.25858C47.3321 3.36262 47.1536 3.4805 46.9929 3.61582L48.2812 5.14565ZM48.4907 5.00689C48.553 4.97225 48.6368 4.9371 48.7489 4.90744L48.2371 2.97403C47.9865 3.04037 47.745 3.13322 47.5194 3.25858L48.4907 5.00689ZM48.7421 4.90923C48.8412 4.88373 48.9544 4.86874 49.085 4.86874V2.86874C48.7996 2.86874 48.5182 2.90174 48.244 2.97224L48.7421 4.90923ZM49.085 4.86874C49.7123 4.86874 50.0103 5.06527 50.1946 5.33584L51.8474 4.20963C51.2104 3.27487 50.2177 2.86874 49.085 2.86874V4.86874ZM50.198 5.34081C50.4571 5.71618 50.645 6.32475 50.645 7.27674H52.645C52.645 6.09539 52.4169 5.03462 51.844 4.20466L50.198 5.34081ZM50.645 7.27674C50.645 7.70382 50.5973 8.08143 50.5098 8.41484L52.4442 8.92263C52.5807 8.40271 52.645 7.85232 52.645 7.27674H50.645ZM50.5106 8.41183C50.4239 8.73791 50.3013 9.00733 50.1511 9.2309L51.811 10.3466C52.098 9.91947 52.3061 9.44222 52.4435 8.92564L50.5106 8.41183ZM50.1511 9.2309C50.0235 9.42075 49.8632 9.56628 49.6589 9.67626L50.6071 11.4372C51.0962 11.1739 51.5012 10.8074 51.811 10.3466L50.1511 9.2309ZM49.6639 9.67362C49.4868 9.7677 49.2601 9.82874 48.957 9.82874V11.8287C49.5393 11.8287 50.0966 11.7084 50.6022 11.4399L49.6639 9.67362ZM47.781 10.7167C48.4382 10.7167 49.039 10.44 49.4221 9.85387C49.7569 9.34166 49.853 8.70047 49.853 8.07674H47.853C47.853 8.29872 47.8346 8.46361 47.8089 8.58134C47.7832 8.69966 47.7547 8.74934 47.748 8.7596C47.7457 8.76313 47.7612 8.74098 47.7957 8.72338C47.8265 8.70768 47.8312 8.71674 47.781 8.71674V10.7167ZM49.853 8.07674V6.71674H47.853V8.07674H49.853ZM49.853 6.71674C49.853 6.15586 49.7523 5.57036 49.4179 5.08967L47.7761 6.2318C47.783 6.24178 47.853 6.36027 47.853 6.71674H49.853ZM49.4318 5.11014C49.1136 4.6277 48.609 4.28474 47.957 4.28474V6.28474C47.9417 6.28474 47.9179 6.2828 47.8887 6.2751C47.8592 6.26731 47.8311 6.25541 47.8065 6.24095C47.7562 6.2114 47.746 6.18674 47.7622 6.21133L49.4318 5.11014ZM47.957 4.28474C47.5037 4.28474 47.1054 4.45276 46.7778 4.68555L47.9362 6.31592C47.9757 6.28788 47.9963 6.28015 47.9977 6.27962C47.9983 6.27943 47.9945 6.28082 47.9868 6.28221C47.979 6.28363 47.9688 6.28474 47.957 6.28474V4.28474ZM46.357 5.50074V9.66074H48.357V5.50074H46.357ZM47.0994 10.627C47.2081 10.656 47.3184 10.6801 47.429 10.6971L47.7331 8.72036C47.705 8.71604 47.6659 8.70816 47.6147 8.6945L47.0994 10.627ZM47.5043 10.7058C47.597 10.7129 47.6893 10.7167 47.781 10.7167V8.71674C47.7447 8.71674 47.7037 8.71522 47.6577 8.71168L47.5043 10.7058ZM56.0702 6.69274V7.69274H57.0702V6.69274H56.0702ZM55.1902 4.91674L55.6559 5.80165L55.6738 5.79226L55.6912 5.78216L55.1902 4.91674ZM54.9662 5.18074L55.8917 5.55937L55.8947 5.55227L55.8974 5.54513L54.9662 5.18074ZM54.8702 5.54874L53.8779 5.4247L53.8756 5.44337L53.874 5.46211L54.8702 5.54874ZM54.8542 6.69274H53.8542V7.69274H54.8542V6.69274ZM53.8702 10.7247L53.4872 11.6485L53.4911 11.6501L53.8702 10.7247ZM52.8302 9.96474L52.038 10.5751L52.0443 10.5831L52.8302 9.96474ZM52.2782 8.86874L51.3167 9.14346L51.3176 9.14679L52.2782 8.86874ZM53.0142 4.78874L52.304 4.08472L52.304 4.08472L53.0142 4.78874ZM57.8222 4.61274L57.084 5.28739L57.0877 5.29135L57.8222 4.61274ZM58.5022 7.87674V8.87674H59.5022V7.87674H58.5022ZM54.8462 7.87674V6.87674H53.8462V7.87674H54.8462ZM54.9422 8.80474L53.9886 9.10587L53.9922 9.11719L53.996 9.12842L54.9422 8.80474ZM55.2382 9.25274L55.8382 8.45274L55.8382 8.45274L55.2382 9.25274ZM55.6302 9.44474L55.3968 10.4171L55.3968 10.4171L55.6302 9.44474ZM56.7182 9.42074L56.5038 8.44398L56.4987 8.44513L56.7182 9.42074ZM57.3742 9.19674L56.962 8.28559L56.9537 8.28942L57.3742 9.19674ZM57.9342 8.83674L58.7977 8.33233L58.1682 7.25479L57.2538 8.10394L57.9342 8.83674ZM58.4062 9.64474L59.2574 10.1696L59.5725 9.65867L59.2697 9.14033L58.4062 9.64474ZM57.5342 10.4527L58.0251 11.324L58.029 11.3217L57.5342 10.4527ZM57.0702 6.69274C57.0702 6.01269 57.0382 5.42543 56.9374 5.01451L54.995 5.49096C55.0329 5.64537 55.0702 6.01812 55.0702 6.69274H57.0702ZM56.9374 5.01451C56.8822 4.78957 56.7783 4.5052 56.5594 4.26346C56.3105 3.9886 55.9648 3.82874 55.5822 3.82874V5.82874C55.4994 5.82874 55.4013 5.81229 55.3015 5.76745C55.2022 5.72284 55.1278 5.66215 55.077 5.60601C54.9861 5.5056 54.9808 5.43323 54.995 5.49096L56.9374 5.01451ZM55.5822 3.82874C55.3081 3.82874 54.9886 3.87797 54.6892 4.05131L55.6912 5.78216C55.6425 5.8104 55.603 5.82202 55.5832 5.82645C55.5644 5.83069 55.5621 5.82874 55.5822 5.82874V3.82874ZM54.7245 4.03182C54.3788 4.21373 54.1566 4.50557 54.035 4.81634L55.8974 5.54513C55.8868 5.57234 55.8642 5.61851 55.8207 5.66971C55.7759 5.7225 55.7194 5.76825 55.6559 5.80165L54.7245 4.03182ZM54.0407 4.8021C53.9587 5.00242 53.9047 5.21081 53.8779 5.4247L55.8625 5.67277C55.8677 5.63066 55.8777 5.59372 55.8917 5.55937L54.0407 4.8021ZM53.874 5.46211C53.8598 5.62481 53.8542 5.81386 53.8542 6.02074H55.8542C55.8542 5.84361 55.8593 5.71799 55.8664 5.63536L53.874 5.46211ZM53.8542 6.02074V6.69274H55.8542V6.02074H53.8542ZM54.8542 7.69274H56.0702V5.69274H54.8542V7.69274ZM55.4302 9.99674C54.9317 9.99674 54.5458 9.92083 54.2493 9.79937L53.4911 11.6501C54.08 11.8913 54.7341 11.9967 55.4302 11.9967V9.99674ZM54.2532 9.80099C53.9511 9.67572 53.7517 9.51876 53.6161 9.34635L52.0443 10.5831C52.4207 11.0614 52.9147 11.4111 53.4872 11.6485L54.2532 9.80099ZM53.6223 9.3544C53.4502 9.13104 53.3222 8.87905 53.2388 8.59068L51.3176 9.14679C51.4688 9.66909 51.7088 10.1478 52.0381 10.5751L53.6223 9.3544ZM53.2397 8.59401C53.1519 8.28661 53.1022 7.92483 53.1022 7.50074H51.1022C51.1022 8.07931 51.1698 8.62953 51.3167 9.14346L53.2397 8.59401ZM53.1022 7.50074C53.1022 6.46686 53.3637 5.85659 53.7244 5.49275L52.304 4.08472C51.4487 4.94755 51.1022 6.14527 51.1022 7.50074H53.1022ZM53.7244 5.49275C54.0978 5.11603 54.6649 4.86874 55.5662 4.86874V2.86874C54.2809 2.86874 53.1466 3.23477 52.304 4.08472L53.7244 5.49275ZM55.5662 4.86874C56.492 4.86874 56.9046 5.09102 57.0841 5.28738L58.5603 3.93809C57.8331 3.14245 56.7417 2.86874 55.5662 2.86874V4.86874ZM57.0877 5.29135C57.29 5.51026 57.5022 5.99607 57.5022 6.98874H59.5022C59.5022 5.79474 59.2611 4.69654 58.5567 3.93412L57.0877 5.29135ZM57.5022 6.98874V7.87674H59.5022V6.98874H57.5022ZM58.5022 6.87674H54.8462V8.87674H58.5022V6.87674ZM53.8462 7.87674V8.02874H55.8462V7.87674H53.8462ZM53.8462 8.02874C53.8462 8.40139 53.8829 8.7711 53.9886 9.10587L55.8958 8.5036C55.8735 8.43304 55.8462 8.28541 55.8462 8.02874H53.8462ZM53.996 9.12842C54.1088 9.4579 54.3035 9.80169 54.6382 10.0527L55.8382 8.45274C55.8762 8.48125 55.8961 8.50767 55.9025 8.51748C55.9081 8.52588 55.9008 8.5173 55.8884 8.48105L53.996 9.12842ZM54.6382 10.0527C54.8574 10.2171 55.1105 10.3484 55.3968 10.4171L55.8636 8.47235C55.8725 8.47448 55.8755 8.47636 55.8721 8.47467C55.8683 8.47284 55.8569 8.46678 55.8382 8.45274L54.6382 10.0527ZM55.3968 10.4171C55.6302 10.4731 55.8763 10.4927 56.1182 10.4927V8.49274C55.9761 8.49274 55.8969 8.48034 55.8636 8.47235L55.3968 10.4171ZM56.1182 10.4927C56.39 10.4927 56.6643 10.4579 56.9377 10.3963L56.4987 8.44513C56.3455 8.4796 56.2197 8.49274 56.1182 8.49274V10.4927ZM56.9326 10.3975C57.2275 10.3328 57.515 10.2336 57.7947 10.104L56.9537 8.28942C56.796 8.36251 56.6463 8.41272 56.5038 8.44399L56.9326 10.3975ZM57.7864 10.1078C58.0892 9.97086 58.3717 9.79512 58.6147 9.56953L57.2538 8.10394C57.198 8.15568 57.1072 8.21994 56.962 8.28563L57.7864 10.1078ZM57.0707 9.34114L57.5427 10.1491L59.2697 9.14033L58.7977 8.33233L57.0707 9.34114ZM57.555 9.11985C57.46 9.27391 57.3032 9.43348 57.0394 9.58375L58.029 11.3217C58.5332 11.0347 58.9577 10.6556 59.2574 10.1696L57.555 9.11985ZM57.0434 9.58149C56.7354 9.75498 56.4652 9.85675 56.2307 9.9065L56.6457 11.863C57.1152 11.7634 57.5757 11.5772 58.025 11.324L57.0434 9.58149ZM56.2307 9.9065C55.9386 9.96846 55.6725 9.99674 55.4302 9.99674V11.9967C55.8279 11.9967 56.2338 11.9503 56.6457 11.863L56.2307 9.9065ZM59.2808 10.8287H58.2808V11.8287H59.2808V10.8287ZM59.2808 1.78074H60.2808V1.21454L59.7953 0.923242L59.2808 1.78074ZM58.8008 1.49274H57.8008V2.05893L58.2863 2.35023L58.8008 1.49274ZM58.8008 0.748736L58.6469 -0.23935L57.8008 -0.107559V0.748736H58.8008ZM61.3688 0.348735V-0.651265H61.2914L61.2149 -0.63935L61.3688 0.348735ZM61.8888 0.348735H62.8888V-0.651265H61.8888V0.348735ZM61.8888 10.8287V11.8287H62.8888V10.8287H61.8888ZM60.2808 10.8287V1.78074H58.2808V10.8287H60.2808ZM59.7953 0.923242L59.3153 0.635242L58.2863 2.35023L58.7663 2.63823L59.7953 0.923242ZM59.8008 1.49274V0.748736H57.8008V1.49274H59.8008ZM58.9547 1.73682L61.5227 1.33682L61.2149 -0.63935L58.6469 -0.23935L58.9547 1.73682ZM61.3688 1.34874H61.8888V-0.651265H61.3688V1.34874ZM60.8888 0.348735V10.8287H62.8888V0.348735H60.8888ZM61.8888 9.82874H59.2808V11.8287H61.8888V9.82874Z" fill="black" mask="url(#path-1-outside-1_941_1302)"/>
</svg>
