<svg width="34" height="40" viewBox="0 0 34 40" fill="none" xmlns="http://www.w3.org/2000/svg">
<path d="M11 29.7887V31.8451C11 33.4812 11.6321 35.0503 12.7574 36.2072C13.8826 37.3641 15.4087 38.0141 17 38.0141C18.5913 38.0141 20.1174 37.3641 21.2426 36.2072C22.3679 35.0503 23 33.4812 23 31.8451V29.7887M13 5.11268C13 4.02193 13.4214 2.97585 14.1716 2.20457C14.9217 1.4333 15.9391 1 17 1C18.0609 1 19.0783 1.4333 19.8284 2.20457C20.5786 2.97585 21 4.02193 21 5.11268C23.2968 6.22932 25.2548 7.96754 26.6641 10.141C28.0734 12.3145 28.8809 14.8414 29 17.4507V23.6197C29.1505 24.8982 29.5909 26.1224 30.2856 27.1939C30.9804 28.2654 31.9101 29.1542 33 29.7887H1C2.08988 29.1542 3.01962 28.2654 3.71437 27.1939C4.40913 26.1224 4.84949 24.8982 5 23.6197V17.4507C5.11912 14.8414 5.9266 12.3145 7.3359 10.141C8.7452 7.96754 10.7032 6.22932 13 5.11268Z" stroke="#BEBEBE" stroke-width="2" stroke-linecap="round" stroke-linejoin="round"/>
</svg>
