<svg width="42" height="42" viewBox="0 0 42 42" fill="none" xmlns="http://www.w3.org/2000/svg">
<path d="M13.6386 24.1519L10.4815 20.9949M28.3717 26.2567L24.1622 22.0472M28.3717 13.6283C28.3717 13.6283 31.7266 9.41889 34.6858 9.41889C38.6006 9.41889 41 13.6283 41 13.6283C41 13.6283 38.6006 17.8378 34.6858 17.8378C30.771 17.8378 28.3717 13.6283 28.3717 13.6283ZM28.3717 13.6283C28.3717 13.6283 24.1622 11.229 24.1622 7.31417C24.1622 3.39938 28.3717 1 28.3717 1C28.3717 1 32.5811 3.39938 32.5811 7.31417C32.5811 10.3092 28.3717 13.6283 28.3717 13.6283ZM1.01052 40.9898C1.01052 40.9898 21.7084 33.6464 27.7068 27.6459C29.4769 25.8749 30.4712 23.4735 30.4712 20.9697C30.4712 18.4658 29.4769 16.0644 27.7068 14.2935C26.8306 13.4167 25.7901 12.7211 24.645 12.2465C23.4998 11.772 22.2724 11.5277 21.0327 11.5277C19.7931 11.5277 18.5657 11.772 17.4205 12.2465C16.2753 12.7211 15.2349 13.4167 14.3587 14.2935C8.33917 20.3151 1 41.0003 1 41.0003L1.01052 40.9898Z" stroke="#467D6D" stroke-width="2" stroke-linecap="round" stroke-linejoin="round"/>
</svg>
