<svg width="38" height="39" viewBox="0 0 38 39" fill="none" xmlns="http://www.w3.org/2000/svg">
<path d="M36.3684 21.4658V5.54795C36.3684 4.34175 35.9026 3.18497 35.0735 2.33206C34.2444 1.47916 33.1199 1 31.9474 1H5.42105C4.24852 1 3.124 1.47916 2.2949 2.33206C1.46579 3.18497 1 4.34175 1 5.54795V32.8356C1 34.0418 1.46579 35.1986 2.2949 36.0515C3.124 36.9044 4.24852 37.3836 5.42105 37.3836H20.8947M36.3684 21.4658H25.3158C24.1433 21.4658 23.0187 21.9449 22.1896 22.7978C21.3605 23.6507 20.8947 24.8075 20.8947 26.0137V37.3836M36.3684 21.4658V21.8569C36.3682 23.063 35.9022 24.2196 35.0731 25.0723L24.4006 36.051C23.5717 36.904 22.4474 37.3833 21.2749 37.3836H20.8947" stroke="#BEBEBE" stroke-width="2" stroke-linecap="round" stroke-linejoin="round"/>
</svg>
