<svg width="190" height="52" viewBox="0 0 190 52" fill="none" xmlns="http://www.w3.org/2000/svg">
<path d="M75.166 13.3008L66.4297 39H60.4883L51.7695 13.3008H57.2715L62.1055 28.5938C62.1875 28.8516 62.3223 29.3379 62.5098 30.0527C62.6973 30.7559 62.8848 31.5059 63.0723 32.3027C63.2715 33.0879 63.4062 33.7383 63.4766 34.2539C63.5469 33.7383 63.6699 33.0879 63.8457 32.3027C64.0332 31.5176 64.2148 30.7734 64.3906 30.0703C64.5781 29.3555 64.7129 28.8633 64.7949 28.5938L69.6641 13.3008H75.166ZM95.8555 29.1387C95.8555 30.7793 95.6328 32.2324 95.1875 33.498C94.7539 34.7637 94.1152 35.8359 93.2715 36.7148C92.4395 37.582 91.4316 38.2383 90.248 38.6836C89.0762 39.1289 87.752 39.3516 86.2754 39.3516C84.8926 39.3516 83.6211 39.1289 82.4609 38.6836C81.3125 38.2383 80.3105 37.582 79.4551 36.7148C78.6113 35.8359 77.9551 34.7637 77.4863 33.498C77.0293 32.2324 76.8008 30.7793 76.8008 29.1387C76.8008 26.959 77.1875 25.1133 77.9609 23.6016C78.7344 22.0898 79.8359 20.9414 81.2656 20.1562C82.6953 19.3711 84.4004 18.9785 86.3809 18.9785C88.2207 18.9785 89.8496 19.3711 91.2676 20.1562C92.6973 20.9414 93.8164 22.0898 94.625 23.6016C95.4453 25.1133 95.8555 26.959 95.8555 29.1387ZM82.2676 29.1387C82.2676 30.4277 82.4082 31.5117 82.6895 32.3906C82.9707 33.2695 83.4102 33.9316 84.0078 34.377C84.6055 34.8223 85.3848 35.0449 86.3457 35.0449C87.2949 35.0449 88.0625 34.8223 88.6484 34.377C89.2461 33.9316 89.6797 33.2695 89.9492 32.3906C90.2305 31.5117 90.3711 30.4277 90.3711 29.1387C90.3711 27.8379 90.2305 26.7598 89.9492 25.9043C89.6797 25.0371 89.2461 24.3867 88.6484 23.9531C88.0508 23.5195 87.2715 23.3027 86.3105 23.3027C84.8926 23.3027 83.8613 23.7891 83.2168 24.7617C82.584 25.7344 82.2676 27.1934 82.2676 29.1387ZM105.646 39H100.285V11.6484H105.646V39ZM119.568 35.0801C120.154 35.0801 120.723 35.0215 121.273 34.9043C121.836 34.7871 122.393 34.6406 122.943 34.4648V38.4551C122.369 38.7129 121.654 38.9238 120.799 39.0879C119.955 39.2637 119.029 39.3516 118.021 39.3516C116.85 39.3516 115.795 39.1641 114.857 38.7891C113.932 38.4023 113.199 37.7402 112.66 36.8027C112.133 35.8535 111.869 34.5352 111.869 32.8477V23.373H109.303V21.1055L112.256 19.3125L113.803 15.1641H117.23V19.3477H122.732V23.373H117.23V32.8477C117.23 33.5977 117.441 34.1602 117.863 34.5352C118.297 34.8984 118.865 35.0801 119.568 35.0801ZM134.984 18.9434C137.621 18.9434 139.643 19.5176 141.049 20.666C142.455 21.8145 143.158 23.5605 143.158 25.9043V39H139.414L138.377 36.3281H138.236C137.674 37.0312 137.1 37.6055 136.514 38.0508C135.928 38.4961 135.254 38.8242 134.492 39.0352C133.73 39.2461 132.805 39.3516 131.715 39.3516C130.555 39.3516 129.512 39.1289 128.586 38.6836C127.672 38.2383 126.951 37.5586 126.424 36.6445C125.896 35.7188 125.633 34.5469 125.633 33.1289C125.633 31.043 126.365 29.5078 127.83 28.5234C129.295 27.5273 131.492 26.9766 134.422 26.8711L137.832 26.7656V25.9043C137.832 24.873 137.562 24.1172 137.023 23.6367C136.484 23.1562 135.734 22.916 134.773 22.916C133.824 22.916 132.893 23.0508 131.979 23.3203C131.064 23.5898 130.15 23.9297 129.236 24.3398L127.461 20.7188C128.504 20.168 129.67 19.7344 130.959 19.418C132.26 19.1016 133.602 18.9434 134.984 18.9434ZM137.832 29.8945L135.758 29.9648C134.023 30.0117 132.816 30.3223 132.137 30.8965C131.469 31.4707 131.135 32.2266 131.135 33.1641C131.135 33.9844 131.375 34.5703 131.855 34.9219C132.336 35.2617 132.963 35.4316 133.736 35.4316C134.885 35.4316 135.852 35.0918 136.637 34.4121C137.434 33.7324 137.832 32.7656 137.832 31.5117V29.8945ZM159.664 18.9785C159.934 18.9785 160.244 18.9961 160.596 19.0312C160.959 19.0547 161.252 19.0898 161.475 19.1367L161.07 24.1641C160.895 24.1055 160.643 24.0645 160.314 24.041C159.998 24.0059 159.723 23.9883 159.488 23.9883C158.797 23.9883 158.123 24.0762 157.467 24.252C156.822 24.4277 156.242 24.7148 155.727 25.1133C155.211 25.5 154.801 26.0156 154.496 26.6602C154.203 27.293 154.057 28.0723 154.057 28.998V39H148.695V19.3477H152.756L153.547 22.6523H153.811C154.197 21.9844 154.678 21.375 155.252 20.8242C155.838 20.2617 156.5 19.8164 157.238 19.4883C157.988 19.1484 158.797 18.9785 159.664 18.9785Z" fill="white"/>
<path d="M42.8901 35.582C42.8901 33.9414 43.2417 27.4668 38.1343 22.3301C34.6968 18.873 29.5522 18.2734 23.3999 18V7.69308C23.3999 7.04233 22.6279 6.70036 22.146 7.13761L6.0059 21.7803C5.68009 22.0759 5.67746 22.5871 6.00023 22.886L22.1403 37.8335C22.6204 38.2781 23.3999 37.9376 23.3999 37.2832V27C27.3062 27.1074 30.0886 27.3559 32.6167 28.1602C37.5744 29.7374 40.4868 36.5766 41.2172 38.4969C41.3319 38.7986 41.6176 39 41.9405 39H42.1499C42.5641 39 42.8998 38.6644 42.8986 38.2502C42.896 37.3369 42.8901 36.2529 42.8901 35.582Z" fill="white"/>
</svg>
