<svg width="50" height="45" viewBox="0 0 50 45" fill="none" xmlns="http://www.w3.org/2000/svg">
<path d="M19.6667 11.6667V6.33333C19.6667 4.91885 20.2286 3.56229 21.2288 2.5621C22.229 1.5619 23.5855 1 25 1H43.6667C45.0812 1 46.4377 1.5619 47.4379 2.5621C48.4381 3.56229 49 4.91885 49 6.33333V38.3333C49 39.7478 48.4381 41.1044 47.4379 42.1046C46.4377 43.1048 45.0812 43.6667 43.6667 43.6667H25C23.5855 43.6667 22.229 43.1048 21.2288 42.1046C20.2286 41.1044 19.6667 39.7478 19.6667 38.3333V33M33 22.3333H1M1 22.3333L9 14.3333M1 22.3333L9 30.3333" stroke="#467D6D" stroke-width="2" stroke-linecap="round" stroke-linejoin="round"/>
</svg>
