<svg width="32" height="32" viewBox="0 0 32 32" fill="none" xmlns="http://www.w3.org/2000/svg">
<g clip-path="url(#clip0_688_1003)">
<path d="M23.9202 23.9202C21.641 25.6575 18.8656 26.62 16.0002 26.6668C6.66683 26.6668 1.3335 16.0002 1.3335 16.0002C2.99202 12.9094 5.29234 10.209 8.08016 8.08016M13.2002 5.6535C14.1179 5.43867 15.0576 5.33128 16.0002 5.3335C25.3335 5.3335 30.6668 16.0002 30.6668 16.0002C29.8575 17.5143 28.8922 18.9398 27.7868 20.2535M18.8268 18.8268C18.4606 19.2198 18.019 19.535 17.5284 19.7537C17.0377 19.9723 16.508 20.0898 15.971 20.0993C15.4339 20.1088 14.9004 20.01 14.4023 19.8088C13.9042 19.6076 13.4518 19.3082 13.072 18.9284C12.6921 18.5485 12.3927 18.0961 12.1915 17.598C11.9903 17.0999 11.8915 16.5665 11.901 16.0294C11.9105 15.4923 12.028 14.9626 12.2467 14.472C12.4653 13.9813 12.7805 13.5397 13.1735 13.1735M1.3335 1.3335L30.6668 30.6668" stroke="#757575" stroke-width="3" stroke-linecap="round" stroke-linejoin="round"/>
</g>
<defs>
<clipPath id="clip0_688_1003">
<rect width="32" height="32" fill="white"/>
</clipPath>
</defs>
</svg>
